<svg width="594" height="127" viewBox="0 0 594 127" fill="none" xmlns="http://www.w3.org/2000/svg">
<path d="M17.5223 50.28C11.4423 50.28 5.42625 48.68 1.20225 45.928V33.064C7.41025 41.576 13.1703 45.736 18.8023 45.736C22.4503 45.736 24.8183 44.072 24.8183 41.256C24.8183 38.376 23.2183 36.584 20.0183 35.368L10.6743 31.848C4.65825 29.608 0.946252 24.296 0.946252 17.896C0.946252 9.192 8.17825 2.92 18.1623 2.92C24.0503 2.92 28.2743 4.008 32.4343 6.568V18.856C27.9543 11.304 22.7063 7.528 16.7543 7.528C13.1703 7.528 11.1223 9.064 11.1223 11.88C11.1223 14.376 12.6583 15.784 16.1783 17.192L25.5223 20.968C32.2423 23.72 35.5063 28.008 35.5063 34.152C35.5063 43.688 28.1463 50.28 17.5223 50.28ZM46.7753 30.12C47.9913 36.136 52.2793 39.528 58.7433 39.528C62.0073 39.528 64.1193 38.952 66.4873 37.48C65.7193 45.224 60.7273 49.96 53.3033 49.96C43.2553 49.96 36.7913 43.688 36.7913 32.808C36.7913 22.248 42.9353 14.44 52.4713 14.44C61.4313 14.44 66.4873 20.52 66.4873 30.12H46.7753ZM51.0633 17.832C48.1193 17.832 46.3913 20.968 46.3913 26.344V26.536H55.2233C55.2233 20.328 54.0713 17.832 51.0633 17.832ZM87.1608 49C88.6968 47.208 89.2728 45.288 89.2728 41.832V25.192C89.2728 22.248 88.0568 20.776 85.7528 20.776C84.4728 20.776 83.3848 21.224 82.5528 21.992V41.832C82.5528 45.48 83.0008 46.952 84.6648 49H67.4488C69.6248 47.208 70.3928 45.352 70.3928 41.832V28.2C70.3928 23.784 69.6888 21.992 67.4488 20.456L82.2328 14.44V19.688C83.8328 16.616 87.5448 14.44 91.5128 14.44C97.8488 14.44 101.433 18.216 101.433 24.808V41.832C101.433 45.16 102.137 47.208 103.929 49H87.1608ZM141.952 49H126.656V45.608C124.8 48.36 121.792 49.96 118.208 49.96C110.528 49.96 105.856 44.008 105.856 34.216C105.856 22.44 112.128 14.44 120.832 14.44C123.328 14.44 125.44 15.08 126.656 15.912C126.592 11.496 125.376 9.384 121.92 7.464L138.816 2.28V42.6C138.816 46.248 139.584 47.848 141.952 49ZM124.672 43.624C125.376 43.624 126.08 43.432 126.656 43.112V18.728C126.144 18.28 125.568 18.088 124.8 18.088C121.28 18.088 118.784 23.336 118.784 31.272C118.784 39.528 120.96 43.624 124.672 43.624ZM178.789 14.44C185.893 14.44 190.629 19.88 190.629 29.16C190.629 42.92 181.605 49.96 169.765 49.96C165.605 49.96 160.933 48.936 157.541 47.208V18.088C157.541 13.736 156.325 11.432 153.509 9.576L169.701 2.28V18.856C171.749 15.848 175.141 14.44 178.789 14.44ZM171.621 47.208C175.269 47.208 177.637 43.048 177.637 34.024C177.637 25.64 175.525 20.776 171.685 20.776C170.917 20.776 170.213 20.968 169.701 21.288V46.696C170.149 47.016 170.597 47.208 171.621 47.208ZM201.283 13.928C197.571 13.928 194.691 10.984 194.691 7.464C194.691 3.88 197.571 0.935997 201.283 0.935997C204.995 0.935997 207.875 3.88 207.875 7.464C207.875 10.984 204.995 13.928 201.283 13.928ZM195.523 41.832V28.136C195.523 23.784 194.883 22.056 192.707 20.584L207.683 14.44V41.768C207.683 45.352 208.707 47.208 210.627 49H192.579C194.755 47.208 195.523 45.352 195.523 41.832ZM235.845 39.464C242.437 39.464 246.597 42.408 246.597 48.936C246.597 57 238.789 62.76 227.973 62.76C217.413 62.76 211.909 60.264 211.909 55.528C211.909 53.16 213.893 51.304 217.413 50.536C214.405 49.064 212.549 46.056 212.549 42.28C212.549 38.376 214.853 35.24 218.501 34.152C215.429 32.232 213.637 29.224 213.637 25.512C213.637 18.792 219.461 14.376 228.357 14.376C230.533 14.376 232.453 14.632 234.245 15.144C233.669 14.184 233.413 13.16 233.413 12.136C233.413 8.552 236.037 6.12 239.749 6.12C243.781 6.12 246.277 7.912 246.277 11.368C246.277 14.248 244.165 16.232 241.093 16.232C241.221 13.992 240.389 12.648 238.853 12.648C237.573 12.648 236.869 13.352 236.869 14.568C236.869 15.4 237.445 16.232 238.405 17C241.413 18.92 243.077 21.864 243.077 25.512C243.077 32.232 237.253 36.648 228.357 36.648C225.541 36.648 223.045 36.2 220.933 35.368C220.229 35.944 219.909 36.584 219.909 37.48C219.909 38.952 221.125 40.04 223.429 40.04C227.845 40.04 231.301 39.464 235.845 39.464ZM228.357 17.512C226.245 17.512 225.285 20.008 225.285 25.512C225.285 31.016 226.245 33.512 228.357 33.512C230.469 33.512 231.429 31.016 231.429 25.512C231.429 20.008 230.469 17.512 228.357 17.512ZM228.677 59.048C233.285 59.048 236.741 56.872 236.741 53.992C236.741 51.688 235.525 50.856 232.133 50.856C229.701 50.856 225.925 51.496 221.829 51.496C221.445 51.496 220.997 51.496 220.613 51.432C220.293 52.264 220.229 52.712 220.229 53.608C220.229 56.872 223.621 59.048 228.677 59.048ZM254.702 50.536C250.926 50.536 247.854 47.464 247.854 43.688C247.854 39.976 250.926 36.904 254.702 36.904C258.414 36.904 261.486 39.976 261.486 43.688C261.486 47.464 258.414 50.536 254.702 50.536ZM292.472 50.28C286.392 50.28 280.376 48.68 276.152 45.928V33.064C282.36 41.576 288.12 45.736 293.752 45.736C297.4 45.736 299.768 44.072 299.768 41.256C299.768 38.376 298.168 36.584 294.968 35.368L285.624 31.848C279.608 29.608 275.896 24.296 275.896 17.896C275.896 9.192 283.128 2.92 293.112 2.92C299 2.92 303.224 4.008 307.384 6.568V18.856C302.904 11.304 297.656 7.528 291.704 7.528C288.12 7.528 286.072 9.064 286.072 11.88C286.072 14.376 287.608 15.784 291.128 17.192L300.472 20.968C307.192 23.72 310.456 28.008 310.456 34.152C310.456 43.688 303.096 50.28 292.472 50.28ZM321.725 30.12C322.941 36.136 327.229 39.528 333.693 39.528C336.957 39.528 339.069 38.952 341.437 37.48C340.669 45.224 335.677 49.96 328.253 49.96C318.205 49.96 311.741 43.688 311.741 32.808C311.741 22.248 317.885 14.44 327.421 14.44C336.381 14.44 341.437 20.52 341.437 30.12H321.725ZM326.013 17.832C323.069 17.832 321.341 20.968 321.341 26.344V26.536H330.173C330.173 20.328 329.021 17.832 326.013 17.832ZM362.111 49C363.647 47.208 364.223 45.288 364.223 41.832V25.192C364.223 22.248 363.007 20.776 360.703 20.776C359.423 20.776 358.335 21.224 357.503 21.992V41.832C357.503 45.48 357.951 46.952 359.615 49H342.399C344.575 47.208 345.343 45.352 345.343 41.832V28.2C345.343 23.784 344.639 21.992 342.399 20.456L357.183 14.44V19.688C358.783 16.616 362.495 14.44 366.463 14.44C372.799 14.44 376.383 18.216 376.383 24.808V41.832C376.383 45.16 377.087 47.208 378.879 49H362.111ZM416.902 49H401.606V45.608C399.75 48.36 396.742 49.96 393.158 49.96C385.478 49.96 380.806 44.008 380.806 34.216C380.806 22.44 387.078 14.44 395.782 14.44C398.278 14.44 400.39 15.08 401.606 15.912C401.542 11.496 400.326 9.384 396.87 7.464L413.766 2.28V42.6C413.766 46.248 414.534 47.848 416.902 49ZM399.622 43.624C400.326 43.624 401.03 43.432 401.606 43.112V18.728C401.094 18.28 400.518 18.088 399.75 18.088C396.23 18.088 393.734 23.336 393.734 31.272C393.734 39.528 395.91 43.624 399.622 43.624ZM445.977 49.96C435.289 49.96 428.121 42.856 428.121 32.232C428.121 21.544 435.289 14.44 445.977 14.44C456.665 14.44 463.833 21.544 463.833 32.232C463.833 42.856 456.665 49.96 445.977 49.96ZM445.977 46.44C449.113 46.44 450.713 41.576 450.713 32.232C450.713 22.824 449.113 17.96 445.977 17.96C442.841 17.96 441.241 22.824 441.241 32.232C441.241 41.576 442.841 46.44 445.977 46.44ZM479.859 7.208C477.363 7.208 475.635 8.68 475.635 10.92C475.635 13.8 477.683 15.4 481.395 15.4H485.747V18.6H481.395V40.872C481.395 44.52 483.123 46.952 487.219 49H465.139C467.955 46.888 469.235 44.456 469.235 41.32V18.6H465.459V15.4H469.363C470.195 7.144 475.187 2.28 482.995 2.28C488.243 2.28 491.571 4.392 491.571 7.656C491.571 10.92 488.883 12.904 484.275 13.096C484.275 9.32 482.675 7.208 479.859 7.208ZM506.749 42.792C508.285 42.792 509.693 42.216 510.653 41.192C509.693 47.016 506.301 49.96 500.029 49.96C494.653 49.96 490.237 47.144 490.237 40.488V18.6H487.101L502.397 5.672V15.4H509.117V18.6H502.397V37.864C502.397 40.936 504.061 42.792 506.749 42.792ZM519.703 30.12C520.919 36.136 525.207 39.528 531.671 39.528C534.935 39.528 537.047 38.952 539.415 37.48C538.647 45.224 533.655 49.96 526.231 49.96C516.183 49.96 509.719 43.688 509.719 32.808C509.719 22.248 515.863 14.44 525.399 14.44C534.359 14.44 539.415 20.52 539.415 30.12H519.703ZM523.991 17.832C521.047 17.832 519.319 20.968 519.319 26.344V26.536H528.151C528.151 20.328 526.999 17.832 523.991 17.832ZM560.088 49C561.624 47.208 562.2 45.288 562.2 41.832V25.192C562.2 22.248 560.984 20.776 558.68 20.776C557.4 20.776 556.312 21.224 555.48 21.992V41.832C555.48 45.48 555.928 46.952 557.592 49H540.376C542.552 47.208 543.32 45.352 543.32 41.832V28.2C543.32 23.784 542.616 21.992 540.376 20.456L555.16 14.44V19.688C556.76 16.616 560.472 14.44 564.44 14.44C570.776 14.44 574.36 18.216 574.36 24.808V41.832C574.36 45.16 575.064 47.208 576.856 49H560.088ZM586.592 50.536C582.816 50.536 579.744 47.464 579.744 43.688C579.744 39.976 582.816 36.904 586.592 36.904C590.304 36.904 593.376 39.976 593.376 43.688C593.376 47.464 590.304 50.536 586.592 50.536ZM98.4798 114.28C92.3998 114.28 86.3838 112.68 82.1598 109.928V97.064C88.3678 105.576 94.1278 109.736 99.7598 109.736C103.408 109.736 105.776 108.072 105.776 105.256C105.776 102.376 104.176 100.584 100.976 99.368L91.6318 95.848C85.6158 93.608 81.9038 88.296 81.9038 81.896C81.9038 73.192 89.1358 66.92 99.1198 66.92C105.008 66.92 109.232 68.008 113.392 70.568V82.856C108.912 75.304 103.664 71.528 97.7118 71.528C94.1278 71.528 92.0798 73.064 92.0798 75.88C92.0798 78.376 93.6158 79.784 97.1358 81.192L106.48 84.968C113.2 87.72 116.464 92.008 116.464 98.152C116.464 107.688 109.104 114.28 98.4798 114.28ZM136.437 106.792C137.973 106.792 139.381 106.216 140.341 105.192C139.381 111.016 135.989 113.96 129.717 113.96C124.341 113.96 119.925 111.144 119.925 104.488V82.6H116.789L132.085 69.672V79.4H138.805V82.6H132.085V101.864C132.085 104.936 133.749 106.792 136.437 106.792ZM173.36 107.688C174.32 107.688 175.024 107.496 175.536 107.112C174.832 111.144 171.568 113.96 167.28 113.96C163.632 113.96 160.304 112.36 159.088 108.52C157.104 112.36 153.584 113.96 149.872 113.96C144.56 113.96 140.976 110.44 140.976 106.024C140.976 100.328 144.816 96.616 153.2 94.696L158.576 93.48V86.632C158.576 82.984 157.296 81.448 154.928 81.448C152.816 81.448 151.472 82.856 151.472 84.968C151.472 86.824 152.112 88.104 153.328 89.896C152.88 91.56 150.576 93.672 147.504 93.672C143.92 93.672 141.808 91.176 141.808 87.72C141.808 82.408 147.824 78.44 156.144 78.44C165.872 78.44 170.736 82.344 170.736 91.048V103.528C170.736 106.536 171.76 107.688 173.36 107.688ZM156.336 107.432C157.232 107.432 158 107.112 158.64 106.536C158.576 106.024 158.576 105.512 158.576 104.936V96.36L157.744 96.552C154.736 97.32 152.688 98.984 152.688 102.632C152.688 105.64 154.096 107.432 156.336 107.432ZM194.672 79.4H205.488C203.76 81 203.12 82.088 201.84 85.48L190.32 115.56C187.184 123.816 184.112 126.76 178.672 126.76C174.256 126.76 171.376 124.264 171.376 120.424C171.376 117.032 173.744 114.408 177.136 114.024C177.968 117.992 179.44 119.656 182.128 119.656C184.368 119.656 185.648 118.12 185.648 115.496C185.648 114.408 185.328 113.064 184.752 111.4L172.976 84.712C171.824 82.088 170.736 80.296 169.776 79.4H190.064C188.528 80.488 187.632 82.088 187.632 83.752C187.632 84.712 188.016 86.312 188.464 87.592L192.496 98.472L196.656 87.336C197.104 86.248 197.296 85.16 197.296 84.136C197.296 82.152 196.464 80.68 194.672 79.4ZM251.507 111.976L236.851 113.384V109.224C235.059 112.04 231.475 113.96 227.891 113.96C222.835 113.96 218.995 111.208 218.995 103.784V92.712C218.995 88.168 218.227 86.312 216.051 84.648L231.155 78.44V103.912C231.155 106.344 232.051 107.624 234.035 107.624C235.187 107.624 236.083 107.112 236.851 106.344V92.264C236.851 87.72 236.083 86.312 233.907 84.648L249.011 78.44V106.536C249.011 108.968 249.843 110.76 251.507 111.976ZM273.123 113C274.659 111.208 275.235 109.288 275.235 105.832V89.192C275.235 86.248 274.019 84.776 271.715 84.776C270.435 84.776 269.347 85.224 268.515 85.992V105.832C268.515 109.48 268.963 110.952 270.627 113H253.411C255.587 111.208 256.355 109.352 256.355 105.832V92.2C256.355 87.784 255.651 85.992 253.411 84.456L268.195 78.44V83.688C269.795 80.616 273.507 78.44 277.475 78.44C283.811 78.44 287.395 82.216 287.395 88.808V105.832C287.395 109.16 288.099 111.208 289.891 113H273.123ZM291.947 113C294.123 111.208 294.891 109.352 294.891 105.832V80.936C294.891 76.904 293.931 75.24 291.499 73.576L307.051 66.28V105.832C307.051 109.352 307.819 111.208 309.995 113H291.947ZM320.305 77.928C316.593 77.928 313.713 74.984 313.713 71.464C313.713 67.88 316.593 64.936 320.305 64.936C324.017 64.936 326.897 67.88 326.897 71.464C326.897 74.984 324.017 77.928 320.305 77.928ZM314.545 105.832V92.136C314.545 87.784 313.905 86.056 311.729 84.584L326.705 78.44V105.768C326.705 109.352 327.729 111.208 329.649 113H311.601C313.777 111.208 314.545 109.352 314.545 105.832ZM367.603 113C369.203 111.016 369.715 109.352 369.715 105.832V87.976C369.715 85.8 368.819 84.776 366.963 84.776C365.747 84.776 364.915 85.16 364.211 86.056C364.275 86.632 364.275 87.208 364.275 87.784V105.832C364.275 109.352 364.787 111.016 366.387 113H350.003C351.603 111.016 352.115 109.352 352.115 105.832V88.04C352.115 85.864 351.219 84.776 349.363 84.776C348.275 84.776 347.443 85.16 346.675 85.992V105.832C346.675 109.352 347.187 111.016 348.787 113H331.571C333.747 111.208 334.515 109.352 334.515 105.832V92.136C334.515 87.784 333.811 85.992 331.571 84.456L346.355 78.44V83.816C348.019 80.424 351.347 78.44 355.443 78.44C359.859 78.44 362.675 80.36 363.763 83.944C365.619 80.424 368.947 78.44 372.979 78.44C378.803 78.44 381.875 81.704 381.875 87.784V105.832C381.875 109.352 382.387 111.016 383.987 113H367.603ZM394.62 77.928C390.908 77.928 388.028 74.984 388.028 71.464C388.028 67.88 390.908 64.936 394.62 64.936C398.332 64.936 401.212 67.88 401.212 71.464C401.212 74.984 398.332 77.928 394.62 77.928ZM388.86 105.832V92.136C388.86 87.784 388.22 86.056 386.044 84.584L401.02 78.44V105.768C401.02 109.352 402.044 111.208 403.964 113H385.916C388.092 111.208 388.86 109.352 388.86 105.832ZM424.574 106.792C426.11 106.792 427.518 106.216 428.478 105.192C427.518 111.016 424.126 113.96 417.854 113.96C412.478 113.96 408.062 111.144 408.062 104.488V82.6H404.926L420.222 69.672V79.4H426.942V82.6H420.222V101.864C420.222 104.936 421.886 106.792 424.574 106.792ZM437.528 94.12C438.744 100.136 443.032 103.528 449.496 103.528C452.76 103.528 454.872 102.952 457.24 101.48C456.472 109.224 451.48 113.96 444.056 113.96C434.008 113.96 427.544 107.688 427.544 96.808C427.544 86.248 433.688 78.44 443.224 78.44C452.184 78.44 457.24 84.52 457.24 94.12H437.528ZM441.816 81.832C438.872 81.832 437.144 84.968 437.144 90.344V90.536H445.976C445.976 84.328 444.824 81.832 441.816 81.832ZM494.922 113H479.626V109.608C477.77 112.36 474.762 113.96 471.178 113.96C463.498 113.96 458.826 108.008 458.826 98.216C458.826 86.44 465.098 78.44 473.802 78.44C476.298 78.44 478.41 79.08 479.626 79.912C479.562 75.496 478.346 73.384 474.89 71.464L491.786 66.28V106.6C491.786 110.248 492.554 111.848 494.922 113ZM477.642 107.624C478.346 107.624 479.05 107.432 479.626 107.112V82.728C479.114 82.28 478.538 82.088 477.77 82.088C474.25 82.088 471.754 87.336 471.754 95.272C471.754 103.528 473.93 107.624 477.642 107.624ZM504.354 114.536C500.578 114.536 497.506 111.464 497.506 107.688C497.506 103.976 500.578 100.904 504.354 100.904C508.066 100.904 511.138 103.976 511.138 107.688C511.138 111.464 508.066 114.536 504.354 114.536Z" fill="black" fill-opacity="0.8"/>
</svg>
