<svg width="540" height="200" viewBox="0 0 540 200" fill="none" xmlns="http://www.w3.org/2000/svg">
<path d="M13.248 105.096H13.032V122.736C13.032 126.192 13.752 127.848 16.776 129H5.148C8.172 127.848 8.892 126.192 8.892 122.736V105.096H8.676C4.32 105.096 2.556 106.032 0 109.848L1.332 102.972C2.088 103.584 3.312 103.8 4.788 103.8H17.136C18.576 103.8 19.8 103.584 20.592 102.972L21.924 109.848C19.332 106.032 17.568 105.096 13.248 105.096ZM33.5295 129C35.0055 128.244 35.5815 127.344 35.5815 124.86V116.796C35.5815 113.988 34.3935 112.512 32.1615 112.512C30.5055 112.512 29.2095 113.268 28.3095 114.744V124.86C28.3095 127.344 28.8135 128.172 30.3615 129H22.3695C24.0255 128.208 24.6015 127.308 24.6015 124.86V108.732C24.6015 106.572 23.9175 105.708 22.2975 105.42L28.3095 102.72V113.484C29.3535 111.576 31.3695 110.388 33.7455 110.388C37.2735 110.388 39.2895 112.512 39.2895 116.292V124.86C39.2895 127.344 39.8655 128.244 41.4135 129H33.5295ZM50.7035 110.388C55.0595 110.388 57.6875 113.556 57.5075 118.38H45.4115C45.5555 122.988 48.1475 125.868 52.2515 125.868C54.4475 125.868 56.1395 125.148 57.3635 123.708C56.7515 127.38 54.2675 129.54 50.7035 129.54C45.7355 129.54 42.5675 125.976 42.5675 120.216C42.5675 114.384 45.7715 110.388 50.7035 110.388ZM53.7275 117.156C53.8355 113.7 52.5035 111.756 50.1635 111.756C47.4275 111.756 45.6995 113.772 45.4475 117.156H53.7275ZM77.5724 129.612C71.5244 129.612 67.9964 126.048 67.9964 119.316V108.372C67.9964 105.924 67.1324 104.7 65.6564 103.8H75.1604C73.1084 104.7 72.3524 105.888 72.3524 108.372V119.1C72.3524 124.392 74.5484 127.164 78.7964 127.164C82.7204 127.164 84.8804 124.32 84.8804 118.956V109.092C84.8804 106.284 83.6204 104.7 81.3164 103.8H89.0564C87.4364 104.7 86.6444 106.284 86.6444 109.092V118.668C86.6444 125.976 83.6204 129.612 77.5724 129.612ZM90.2239 129C91.8799 128.208 92.4559 127.308 92.4559 124.86V108.732C92.4559 106.572 91.7359 105.708 90.1519 105.42L96.1639 102.72V124.86C96.1639 127.344 96.7399 128.244 98.3599 129H90.2239ZM108.011 127.2C109.055 127.2 109.919 126.804 110.639 125.94C109.991 128.352 108.443 129.54 106.103 129.54C103.511 129.54 101.783 128.136 101.783 125.004V112.08H99.335L105.491 106.176V110.928H109.667V112.08H105.491V124.176C105.491 126.084 106.355 127.2 108.011 127.2ZM115.171 108.3C113.803 108.3 112.795 107.256 112.795 105.96C112.795 104.592 113.803 103.584 115.171 103.584C116.539 103.584 117.583 104.628 117.583 105.96C117.583 107.256 116.539 108.3 115.171 108.3ZM113.515 124.86V116.22C113.515 114.024 112.903 113.124 111.319 112.764L117.223 110.532V124.824C117.223 127.236 117.799 128.208 119.455 129H111.319C113.011 128.172 113.515 127.2 113.515 124.86ZM141.417 129C143.037 128.136 143.469 127.2 143.469 124.86V116.256C143.469 113.808 142.389 112.512 140.409 112.512C138.897 112.512 137.853 113.232 136.989 114.816C137.025 115.176 137.061 115.608 137.061 116.04V124.86C137.061 127.236 137.529 128.172 139.113 129H131.301C132.885 128.136 133.353 127.2 133.353 124.86V116.328C133.353 113.844 132.273 112.512 130.293 112.512C128.889 112.512 127.773 113.268 126.909 114.744V124.86C126.909 127.236 127.377 128.172 128.961 129H121.005C122.697 128.172 123.201 127.2 123.201 124.86V116.22C123.201 114.024 122.589 113.124 121.005 112.728L126.873 110.532V113.556C127.845 111.576 129.681 110.388 131.841 110.388C134.469 110.388 136.161 111.576 136.773 113.808C137.817 111.612 139.725 110.388 141.957 110.388C145.377 110.388 147.213 112.368 147.213 116.04V124.86C147.213 127.236 147.645 128.172 149.265 129H141.417ZM166.715 127.272C167.255 127.272 167.723 127.128 168.191 126.732C167.939 128.424 166.607 129.54 164.807 129.54C162.899 129.54 161.531 128.46 161.279 126.228C160.343 128.244 158.255 129.54 156.023 129.54C152.999 129.54 151.091 127.812 151.091 125.22C151.091 122.34 153.071 120.432 157.319 119.46L161.243 118.596V116.148C161.243 112.692 160.343 111.468 157.895 111.468C156.203 111.468 154.943 112.44 154.943 113.772C154.943 114.816 155.339 115.464 156.167 116.112C156.059 117.3 155.195 118.164 153.791 118.164C152.351 118.164 151.415 117.048 151.415 115.5C151.415 112.62 154.367 110.388 158.291 110.388C162.683 110.388 164.951 112.44 164.951 116.544V125.148C164.951 126.588 165.527 127.272 166.715 127.272ZM157.787 127.308C159.335 127.308 160.379 126.66 161.243 125.112V119.676L158.831 120.288C156.239 120.936 154.943 122.124 154.943 124.284C154.943 126.156 156.023 127.308 157.787 127.308ZM177.061 127.2C178.105 127.2 178.969 126.804 179.689 125.94C179.041 128.352 177.493 129.54 175.153 129.54C172.561 129.54 170.833 128.136 170.833 125.004V112.08H168.385L174.541 106.176V110.928H178.717V112.08H174.541V124.176C174.541 126.084 175.405 127.2 177.061 127.2ZM188.153 110.388C192.509 110.388 195.137 113.556 194.957 118.38H182.861C183.005 122.988 185.597 125.868 189.701 125.868C191.897 125.868 193.589 125.148 194.813 123.708C194.201 127.38 191.717 129.54 188.153 129.54C183.185 129.54 180.017 125.976 180.017 120.216C180.017 114.384 183.221 110.388 188.153 110.388ZM191.177 117.156C191.285 113.7 189.953 111.756 187.613 111.756C184.877 111.756 183.149 113.772 182.897 117.156H191.177ZM225.105 110.928H230.397C229.497 111.612 228.921 112.512 228.165 114.42L222.153 129.432H221.937L216.573 116.832L211.497 129.432H211.317L204.837 114.168C204.081 112.296 203.289 111.36 202.533 110.928H210.561C209.373 111.36 208.833 112.044 208.833 112.944C208.833 113.376 208.941 113.916 209.229 114.636L212.613 123.132L215.817 114.996L215.457 114.168C214.665 112.296 213.909 111.36 213.009 110.928H221.289C219.957 111.36 219.417 112.044 219.417 112.944C219.417 113.376 219.489 113.916 219.813 114.636L223.197 123.132L226.509 114.852C226.833 114.024 226.977 113.52 226.977 112.944C226.977 111.936 226.221 111.288 225.105 110.928ZM246.365 127.272C246.905 127.272 247.373 127.128 247.841 126.732C247.589 128.424 246.257 129.54 244.457 129.54C242.549 129.54 241.181 128.46 240.929 126.228C239.993 128.244 237.905 129.54 235.673 129.54C232.649 129.54 230.741 127.812 230.741 125.22C230.741 122.34 232.721 120.432 236.969 119.46L240.893 118.596V116.148C240.893 112.692 239.993 111.468 237.545 111.468C235.853 111.468 234.593 112.44 234.593 113.772C234.593 114.816 234.989 115.464 235.817 116.112C235.709 117.3 234.845 118.164 233.441 118.164C232.001 118.164 231.065 117.048 231.065 115.5C231.065 112.62 234.017 110.388 237.941 110.388C242.333 110.388 244.601 112.44 244.601 116.544V125.148C244.601 126.588 245.177 127.272 246.365 127.272ZM237.437 127.308C238.985 127.308 240.029 126.66 240.893 125.112V119.676L238.481 120.288C235.889 120.936 234.593 122.124 234.593 124.284C234.593 126.156 235.673 127.308 237.437 127.308ZM258.486 110.928H264.138C263.022 111.684 262.518 112.476 261.726 114.6L255.822 130.656C254.274 134.94 252.582 136.74 249.918 136.74C248.01 136.74 246.642 135.66 246.642 133.932C246.642 132.492 247.65 131.448 248.982 131.304C249.27 132.78 250.278 133.572 251.538 133.572C253.05 133.572 254.13 132.348 254.13 130.512C254.13 129.864 253.986 129.144 253.662 128.208L248.226 114.492C247.506 112.728 246.498 111.36 245.562 110.928H253.914C252.834 111.324 252.294 112.08 252.294 113.088C252.294 113.7 252.546 114.6 252.87 115.464L256.434 124.896L259.602 116.22C260.07 114.996 260.286 114.096 260.286 113.448C260.286 112.296 259.71 111.504 258.486 110.928ZM280.126 127.2C281.17 127.2 282.034 126.804 282.754 125.94C282.106 128.352 280.558 129.54 278.218 129.54C275.626 129.54 273.898 128.136 273.898 125.004V112.08H271.45L277.606 106.176V110.928H281.782V112.08H277.606V124.176C277.606 126.084 278.47 127.2 280.126 127.2ZM291.903 129.54C286.395 129.54 283.083 125.508 283.083 119.964C283.083 114.456 286.395 110.388 291.903 110.388C297.411 110.388 300.759 114.456 300.759 119.964C300.759 125.508 297.411 129.54 291.903 129.54ZM291.903 128.316C294.963 128.316 296.583 125.148 296.583 119.964C296.583 114.78 294.963 111.612 291.903 111.612C288.879 111.612 287.223 114.78 287.223 119.964C287.223 125.148 288.879 128.316 291.903 128.316ZM10.836 145.848V158.952C10.836 161.796 11.412 163.56 12.852 165H1.26C2.7 163.56 3.276 161.796 3.276 158.952V145.848C3.276 142.968 2.7 141.204 1.26 139.8H12.852C11.412 141.204 10.836 142.968 10.836 145.848ZM25.812 160.932C27.396 163.308 28.26 164.388 28.98 165H19.044L11.016 152.544L18.072 145.272C19.224 144.12 19.728 143.04 19.728 142.14C19.728 141.132 19.116 140.304 18.108 139.8H27.612C26.46 140.484 25.344 141.528 22.716 144.048L17.748 148.8L25.812 160.932ZM33.1476 154.38C33.8316 157.764 36.2436 159.672 39.8796 159.672C41.7156 159.672 42.9036 159.348 44.2356 158.52C43.8036 162.876 40.9956 165.54 36.8196 165.54C31.1676 165.54 27.5316 162.012 27.5316 155.892C27.5316 149.952 30.9876 145.56 36.3516 145.56C41.3916 145.56 44.2356 148.98 44.2356 154.38H33.1476ZM35.5596 147.468C33.9036 147.468 32.9316 149.232 32.9316 152.256V152.364H37.8996C37.8996 148.872 37.2516 147.468 35.5596 147.468ZM50.5682 154.38C51.2522 157.764 53.6642 159.672 57.3002 159.672C59.1362 159.672 60.3242 159.348 61.6562 158.52C61.2242 162.876 58.4162 165.54 54.2402 165.54C48.5882 165.54 44.9522 162.012 44.9522 155.892C44.9522 149.952 48.4082 145.56 53.7722 145.56C58.8122 145.56 61.6562 148.98 61.6562 154.38H50.5682ZM52.9802 147.468C51.3242 147.468 50.3522 149.232 50.3522 152.256V152.364H55.3202C55.3202 148.872 54.6722 147.468 52.9802 147.468ZM75.193 145.56C79.405 145.56 81.925 148.98 81.925 154.668C81.925 161.256 79.369 165.54 73.573 165.54C72.169 165.54 71.125 165.288 70.153 164.676V167.7C70.153 170.148 70.513 170.76 72.745 172.2H61.657C62.953 170.976 63.313 170.076 63.313 167.916V153.264C63.313 150.816 62.917 149.808 61.657 148.944L69.973 145.56V148.296C71.125 146.46 73.105 145.56 75.193 145.56ZM71.233 163.488C73.249 163.488 74.617 160.716 74.617 156.612C74.617 151.644 73.501 149.124 71.269 149.124C70.837 149.124 70.477 149.232 70.153 149.412V163.2C70.477 163.416 70.801 163.488 71.233 163.488ZM104.348 157.872C104.348 161.076 105.176 163.02 107.372 165H93.7637C95.9597 163.02 96.7877 161.076 96.7877 157.872V141.888C94.2677 142.212 91.3877 143.94 88.5797 146.676L90.0197 138.72C90.9917 139.476 92.7917 139.8 94.8077 139.8H106.328C108.344 139.8 110.144 139.476 111.116 138.72L112.556 146.676C109.748 143.94 106.868 142.212 104.348 141.888V157.872ZM122.688 145.56C124.452 145.56 125.712 146.712 125.712 148.62C125.712 150.816 124.452 152.292 122.796 152.292C122.58 151.356 121.824 150.888 120.924 150.888C120.24 150.888 119.556 151.14 119.196 151.464V160.86C119.196 162.912 120.024 164.028 121.788 165H110.7C111.924 163.992 112.356 162.948 112.356 160.968V153.264C112.32 150.816 111.996 149.772 110.592 148.764L118.548 145.56V150.492C119.34 147.324 120.42 145.56 122.688 145.56ZM143.947 162.012C144.487 162.012 144.883 161.904 145.171 161.688C144.775 163.956 142.939 165.54 140.527 165.54C138.475 165.54 136.603 164.64 135.919 162.48C134.803 164.64 132.823 165.54 130.735 165.54C127.747 165.54 125.731 163.56 125.731 161.076C125.731 157.872 127.891 155.784 132.607 154.704L135.631 154.02V150.168C135.631 148.116 134.911 147.252 133.579 147.252C132.391 147.252 131.635 148.044 131.635 149.232C131.635 150.276 131.995 150.996 132.679 152.004C132.427 152.94 131.131 154.128 129.403 154.128C127.387 154.128 126.199 152.724 126.199 150.78C126.199 147.792 129.583 145.56 134.263 145.56C139.735 145.56 142.471 147.756 142.471 152.652V159.672C142.471 161.364 143.047 162.012 143.947 162.012ZM134.371 161.868C134.875 161.868 135.307 161.688 135.667 161.364C135.631 161.076 135.631 160.788 135.631 160.464V155.64L135.163 155.748C133.471 156.18 132.319 157.116 132.319 159.168C132.319 160.86 133.111 161.868 134.371 161.868ZM155.923 165C156.787 163.992 157.111 162.912 157.111 160.968V151.608C157.111 149.952 156.427 149.124 155.131 149.124C154.411 149.124 153.799 149.376 153.331 149.808V160.968C153.331 163.02 153.583 163.848 154.519 165H144.835C146.059 163.992 146.491 162.948 146.491 160.968V153.3C146.491 150.816 146.095 149.808 144.835 148.944L153.151 145.56V148.512C154.051 146.784 156.139 145.56 158.371 145.56C161.935 145.56 163.951 147.684 163.951 151.392V160.968C163.951 162.84 164.347 163.992 165.355 165H155.923ZM174.108 165.54C171.732 165.54 169.356 165 167.124 163.956V158.052C169.392 161.004 172.524 162.948 175.044 162.948C176.088 162.948 176.736 162.408 176.736 161.436C176.736 160.68 176.232 160.248 174.864 159.708L171.228 158.376C168.132 157.224 166.62 155.208 166.62 152.148C166.62 148.296 169.788 145.56 174.216 145.56C176.628 145.56 179.292 146.244 180.624 147.216V152.472C179.004 149.916 175.836 147.972 173.46 147.972C172.308 147.972 171.732 148.368 171.732 149.196C171.732 149.952 172.092 150.348 173.532 150.924L177.132 152.4C180.516 153.768 181.776 155.712 181.776 158.52C181.776 162.732 178.716 165.54 174.108 165.54ZM190.585 141.492C189.181 141.492 188.209 142.32 188.209 143.58C188.209 145.2 189.361 146.1 191.449 146.1H193.897V147.9H191.449V160.428C191.449 162.48 192.421 163.848 194.725 165H182.305C183.889 163.812 184.609 162.444 184.609 160.68V147.9H182.485V146.1H184.681C185.149 141.456 187.957 138.72 192.349 138.72C195.301 138.72 197.173 139.908 197.173 141.744C197.173 143.58 195.661 144.696 193.069 144.804C193.069 142.68 192.169 141.492 190.585 141.492ZM199.549 154.38C200.233 157.764 202.645 159.672 206.281 159.672C208.117 159.672 209.305 159.348 210.637 158.52C210.205 162.876 207.397 165.54 203.221 165.54C197.569 165.54 193.933 162.012 193.933 155.892C193.933 149.952 197.389 145.56 202.753 145.56C207.793 145.56 210.637 148.98 210.637 154.38H199.549ZM201.961 147.468C200.305 147.468 199.333 149.232 199.333 152.256V152.364H204.301C204.301 148.872 203.653 147.468 201.961 147.468ZM223.274 145.56C225.038 145.56 226.298 146.712 226.298 148.62C226.298 150.816 225.038 152.292 223.382 152.292C223.166 151.356 222.41 150.888 221.51 150.888C220.826 150.888 220.142 151.14 219.782 151.464V160.86C219.782 162.912 220.61 164.028 222.374 165H211.286C212.51 163.992 212.942 162.948 212.942 160.968V153.264C212.906 150.816 212.582 149.772 211.178 148.764L219.134 145.56V150.492C219.926 147.324 221.006 145.56 223.274 145.56ZM234.157 165.54C231.781 165.54 229.405 165 227.173 163.956V158.052C229.441 161.004 232.573 162.948 235.093 162.948C236.137 162.948 236.785 162.408 236.785 161.436C236.785 160.68 236.281 160.248 234.913 159.708L231.277 158.376C228.181 157.224 226.669 155.208 226.669 152.148C226.669 148.296 229.837 145.56 234.265 145.56C236.677 145.56 239.341 146.244 240.673 147.216V152.472C239.053 149.916 235.885 147.972 233.509 147.972C232.357 147.972 231.781 148.368 231.781 149.196C231.781 149.952 232.141 150.348 233.581 150.924L237.181 152.4C240.565 153.768 241.825 155.712 241.825 158.52C241.825 162.732 238.765 165.54 234.157 165.54ZM262.342 165C264.538 163.848 264.934 161.904 263.926 159.384L263.638 158.628H254.566L253.81 160.428C252.874 162.66 253.234 164.136 254.962 165H248.482C249.238 164.172 250.03 162.552 251.002 160.212L257.806 143.976L256.33 140.304C258.418 140.304 261.622 139.116 262.99 136.848L272.674 160.932C273.466 162.948 274.258 164.244 274.906 165H262.342ZM255.61 156.108H262.63L259.21 147.54L255.61 156.108ZM275.343 165C276.567 163.992 276.999 162.948 276.999 160.968V146.964C276.999 144.696 276.459 143.76 275.091 142.824L283.839 138.72V160.968C283.839 162.948 284.271 163.992 285.495 165H275.343ZM309.068 146.1H314.216C313.532 146.82 313.208 147.576 312.632 148.944L305.756 165.18H305.18L299.348 152.436L293.804 165.18H293.264L285.56 148.044C285.092 146.964 284.804 146.604 284.408 146.1H295.028C294.236 146.532 293.696 147.216 293.696 148.188C293.696 148.584 293.768 149.016 293.984 149.52L296.036 154.632L298.124 149.736L297.332 148.044C296.828 146.964 296.576 146.604 296.18 146.1H306.8C306.008 146.532 305.468 147.216 305.468 148.188C305.468 148.584 305.54 149.016 305.756 149.52L307.844 154.632L309.896 149.808C310.184 149.16 310.292 148.62 310.292 148.116C310.292 147.18 309.788 146.496 309.068 146.1ZM331.707 162.012C332.247 162.012 332.643 161.904 332.931 161.688C332.535 163.956 330.699 165.54 328.287 165.54C326.235 165.54 324.363 164.64 323.679 162.48C322.563 164.64 320.583 165.54 318.495 165.54C315.507 165.54 313.491 163.56 313.491 161.076C313.491 157.872 315.651 155.784 320.367 154.704L323.391 154.02V150.168C323.391 148.116 322.671 147.252 321.339 147.252C320.151 147.252 319.395 148.044 319.395 149.232C319.395 150.276 319.755 150.996 320.439 152.004C320.187 152.94 318.891 154.128 317.163 154.128C315.147 154.128 313.959 152.724 313.959 150.78C313.959 147.792 317.343 145.56 322.023 145.56C327.495 145.56 330.231 147.756 330.231 152.652V159.672C330.231 161.364 330.807 162.012 331.707 162.012ZM322.131 161.868C322.635 161.868 323.067 161.688 323.427 161.364C323.391 161.076 323.391 160.788 323.391 160.464V155.64L322.923 155.748C321.231 156.18 320.079 157.116 320.079 159.168C320.079 160.86 320.871 161.868 322.131 161.868ZM343.695 146.1H349.779C348.807 147 348.447 147.612 347.727 149.52L341.247 166.44C339.483 171.084 337.755 172.74 334.695 172.74C332.211 172.74 330.591 171.336 330.591 169.176C330.591 167.268 331.923 165.792 333.831 165.576C334.299 167.808 335.127 168.744 336.639 168.744C337.899 168.744 338.619 167.88 338.619 166.404C338.619 165.792 338.439 165.036 338.115 164.1L331.491 149.088C330.843 147.612 330.231 146.604 329.691 146.1H341.103C340.239 146.712 339.735 147.612 339.735 148.548C339.735 149.088 339.951 149.988 340.203 150.708L342.471 156.828L344.811 150.564C345.063 149.952 345.171 149.34 345.171 148.764C345.171 147.648 344.703 146.82 343.695 146.1ZM356.172 165.54C353.796 165.54 351.42 165 349.188 163.956V158.052C351.456 161.004 354.588 162.948 357.108 162.948C358.152 162.948 358.8 162.408 358.8 161.436C358.8 160.68 358.296 160.248 356.928 159.708L353.292 158.376C350.196 157.224 348.684 155.208 348.684 152.148C348.684 148.296 351.852 145.56 356.28 145.56C358.692 145.56 361.356 146.244 362.688 147.216V152.472C361.068 149.916 357.9 147.972 355.524 147.972C354.372 147.972 353.796 148.368 353.796 149.196C353.796 149.952 354.156 150.348 355.596 150.924L359.196 152.4C362.58 153.768 363.84 155.712 363.84 158.52C363.84 162.732 360.78 165.54 356.172 165.54ZM384.356 165C386.552 163.848 386.948 161.904 385.94 159.384L385.652 158.628H376.58L375.824 160.428C374.888 162.66 375.248 164.136 376.976 165H370.496C371.252 164.172 372.044 162.552 373.016 160.212L379.82 143.976L378.344 140.304C380.432 140.304 383.636 139.116 385.004 136.848L394.688 160.932C395.48 162.948 396.272 164.244 396.92 165H384.356ZM377.624 156.108H384.644L381.224 147.54L377.624 156.108ZM407.047 146.1H412.735C412.015 146.748 411.331 147.684 410.575 149.34L403.339 165.18H402.799L394.987 148.944C394.339 147.612 393.763 146.64 393.151 146.1H404.203C403.447 146.46 403.051 147.144 403.051 148.116C403.051 148.44 403.195 149.016 403.411 149.592L405.571 155.028L407.695 149.988C407.983 149.304 408.163 148.584 408.163 148.008C408.163 147.18 407.767 146.496 407.047 146.1ZM429.868 162.012C430.408 162.012 430.804 161.904 431.092 161.688C430.696 163.956 428.86 165.54 426.448 165.54C424.396 165.54 422.524 164.64 421.84 162.48C420.724 164.64 418.744 165.54 416.656 165.54C413.668 165.54 411.652 163.56 411.652 161.076C411.652 157.872 413.812 155.784 418.528 154.704L421.552 154.02V150.168C421.552 148.116 420.832 147.252 419.5 147.252C418.312 147.252 417.556 148.044 417.556 149.232C417.556 150.276 417.916 150.996 418.6 152.004C418.348 152.94 417.052 154.128 415.324 154.128C413.308 154.128 412.12 152.724 412.12 150.78C412.12 147.792 415.504 145.56 420.184 145.56C425.656 145.56 428.392 147.756 428.392 152.652V159.672C428.392 161.364 428.968 162.012 429.868 162.012ZM420.292 161.868C420.796 161.868 421.228 161.688 421.588 161.364C421.552 161.076 421.552 160.788 421.552 160.464V155.64L421.084 155.748C419.392 156.18 418.24 157.116 418.24 159.168C418.24 160.86 419.032 161.868 420.292 161.868ZM436.355 145.272C434.267 145.272 432.647 143.616 432.647 141.636C432.647 139.62 434.267 137.964 436.355 137.964C438.443 137.964 440.063 139.62 440.063 141.636C440.063 143.616 438.443 145.272 436.355 145.272ZM433.115 160.968V153.264C433.115 150.816 432.755 149.844 431.531 149.016L439.955 145.56V160.932C439.955 162.948 440.531 163.992 441.611 165H431.459C432.683 163.992 433.115 162.948 433.115 160.968ZM442.764 165C443.988 163.992 444.42 162.948 444.42 160.968V146.964C444.42 144.696 443.88 143.76 442.512 142.824L451.26 138.72V160.968C451.26 162.948 451.692 163.992 452.916 165H442.764ZM472.215 162.012C472.755 162.012 473.151 161.904 473.439 161.688C473.043 163.956 471.207 165.54 468.795 165.54C466.743 165.54 464.871 164.64 464.187 162.48C463.071 164.64 461.091 165.54 459.003 165.54C456.015 165.54 453.999 163.56 453.999 161.076C453.999 157.872 456.159 155.784 460.875 154.704L463.899 154.02V150.168C463.899 148.116 463.179 147.252 461.847 147.252C460.659 147.252 459.903 148.044 459.903 149.232C459.903 150.276 460.263 150.996 460.947 152.004C460.695 152.94 459.399 154.128 457.671 154.128C455.655 154.128 454.467 152.724 454.467 150.78C454.467 147.792 457.851 145.56 462.531 145.56C468.003 145.56 470.739 147.756 470.739 152.652V159.672C470.739 161.364 471.315 162.012 472.215 162.012ZM462.639 161.868C463.143 161.868 463.575 161.688 463.935 161.364C463.899 161.076 463.899 160.788 463.899 160.464V155.64L463.431 155.748C461.739 156.18 460.587 157.116 460.587 159.168C460.587 160.86 461.379 161.868 462.639 161.868ZM486.775 145.56C490.771 145.56 493.435 148.62 493.435 153.84C493.435 161.58 488.359 165.54 481.699 165.54C479.359 165.54 476.731 164.964 474.823 163.992V147.612C474.823 145.164 474.139 143.868 472.555 142.824L481.663 138.72V148.044C482.815 146.352 484.723 145.56 486.775 145.56ZM482.743 163.992C484.795 163.992 486.127 161.652 486.127 156.576C486.127 151.86 484.939 149.124 482.779 149.124C482.347 149.124 481.951 149.232 481.663 149.412V163.704C481.915 163.884 482.167 163.992 482.743 163.992ZM494.604 165C495.828 163.992 496.26 162.948 496.26 160.968V146.964C496.26 144.696 495.72 143.76 494.352 142.824L503.1 138.72V160.968C503.1 162.948 503.532 163.992 504.756 165H494.604ZM511.275 154.38C511.959 157.764 514.371 159.672 518.007 159.672C519.843 159.672 521.031 159.348 522.363 158.52C521.931 162.876 519.123 165.54 514.947 165.54C509.295 165.54 505.659 162.012 505.659 155.892C505.659 149.952 509.115 145.56 514.479 145.56C519.519 145.56 522.363 148.98 522.363 154.38H511.275ZM513.687 147.468C512.031 147.468 511.059 149.232 511.059 152.256V152.364H516.027C516.027 148.872 515.379 147.468 513.687 147.468Z" fill="#353535"/>
<path d="M4.064 185.888H0.288V184.576H9.328V185.888H5.552V196H4.064V185.888ZM10.1534 185.408C10.1534 185.141 10.244 184.923 10.4254 184.752C10.6067 184.571 10.8254 184.48 11.0814 184.48C11.3587 184.48 11.5827 184.565 11.7534 184.736C11.924 184.907 12.0094 185.131 12.0094 185.408C12.0094 185.675 11.924 185.899 11.7534 186.08C11.5827 186.251 11.3587 186.336 11.0814 186.336C10.8147 186.336 10.5907 186.251 10.4094 186.08C10.2387 185.899 10.1534 185.675 10.1534 185.408ZM10.3934 196V187.728H11.7854V196H10.3934ZM13.6351 187.728H15.0111V189.008C15.3205 188.549 15.6831 188.197 16.0991 187.952C16.5151 187.707 16.9578 187.584 17.4271 187.584C17.7151 187.584 17.9605 187.605 18.1631 187.648L17.9871 188.944C17.8805 188.923 17.7738 188.907 17.6671 188.896C17.5605 188.875 17.4431 188.864 17.3151 188.864C17.0591 188.864 16.7978 188.912 16.5311 189.008C16.2645 189.093 16.0138 189.243 15.7791 189.456C15.5445 189.659 15.3578 189.893 15.2191 190.16C15.0911 190.427 15.0271 190.736 15.0271 191.088V196H13.6351V187.728ZM25.8421 193.68C25.7035 194.48 25.3461 195.109 24.7701 195.568C24.2048 196.027 23.3888 196.256 22.3221 196.256C21.0635 196.256 20.0981 195.877 19.4261 195.12C18.7541 194.352 18.4181 193.285 18.4181 191.92C18.4181 191.205 18.5141 190.571 18.7061 190.016C18.8981 189.461 19.1648 188.997 19.5061 188.624C19.8581 188.251 20.2741 187.968 20.7541 187.776C21.2341 187.573 21.7568 187.472 22.3221 187.472C22.9621 187.472 23.5115 187.573 23.9701 187.776C24.4288 187.979 24.8021 188.261 25.0901 188.624C25.3888 188.976 25.6075 189.397 25.7461 189.888C25.8955 190.379 25.9701 190.917 25.9701 191.504V192.208H19.8261C19.8261 192.624 19.8795 193.013 19.9861 193.376C20.1035 193.728 20.2635 194.037 20.4661 194.304C20.6795 194.56 20.9408 194.763 21.2501 194.912C21.5595 195.061 21.9168 195.136 22.3221 195.136C23.0155 195.136 23.5221 195.008 23.8421 194.752C24.1621 194.485 24.3808 194.128 24.4981 193.68H25.8421ZM24.5781 191.168C24.5781 190.773 24.5355 190.416 24.4501 190.096C24.3648 189.776 24.2315 189.504 24.0501 189.28C23.8688 189.045 23.6341 188.864 23.3461 188.736C23.0581 188.608 22.7115 188.544 22.3061 188.544C21.5701 188.544 20.9941 188.768 20.5781 189.216C20.1728 189.664 19.9328 190.315 19.8581 191.168H24.5781ZM33.5111 194.816C33.1698 195.275 32.7751 195.632 32.3271 195.888C31.8791 196.133 31.3511 196.256 30.7431 196.256C30.1351 196.256 29.6071 196.144 29.1591 195.92C28.7218 195.696 28.3591 195.392 28.0711 195.008C27.7831 194.613 27.5698 194.149 27.4311 193.616C27.2925 193.083 27.2231 192.512 27.2231 191.904C27.2231 191.221 27.3085 190.608 27.4791 190.064C27.6498 189.509 27.8898 189.04 28.1991 188.656C28.5191 188.272 28.9031 187.979 29.3511 187.776C29.8098 187.573 30.3271 187.472 30.9031 187.472C31.3405 187.472 31.7831 187.563 32.2311 187.744C32.6791 187.915 33.0951 188.245 33.4791 188.736V184.576H34.8711V196H33.5111V194.816ZM33.5271 191.616C33.5271 190.955 33.4525 190.443 33.3031 190.08C33.1645 189.707 32.9298 189.392 32.5991 189.136C32.3645 188.944 32.1245 188.811 31.8791 188.736C31.6445 188.661 31.3831 188.624 31.0951 188.624C30.7538 188.624 30.4338 188.683 30.1351 188.8C29.8471 188.917 29.5911 189.109 29.3671 189.376C29.1538 189.632 28.9831 189.968 28.8551 190.384C28.7378 190.789 28.6791 191.285 28.6791 191.872C28.6791 192.48 28.7431 192.992 28.8711 193.408C29.0098 193.824 29.1858 194.155 29.3991 194.4C29.6231 194.645 29.8685 194.821 30.1351 194.928C30.4125 195.035 30.6951 195.088 30.9831 195.088C31.2925 195.088 31.5698 195.051 31.8151 194.976C32.0605 194.901 32.3058 194.773 32.5511 194.592C32.8711 194.336 33.1111 194.016 33.2711 193.632C33.4418 193.248 33.5271 192.763 33.5271 192.176V191.616ZM43.6609 196.256C43.0315 196.256 42.4715 196.155 41.9809 195.952C41.4902 195.749 41.0742 195.461 40.7329 195.088C40.3915 194.715 40.1302 194.256 39.9489 193.712C39.7675 193.168 39.6769 192.56 39.6769 191.888C39.6769 191.216 39.7729 190.608 39.9649 190.064C40.1569 189.52 40.4289 189.056 40.7809 188.672C41.1329 188.288 41.5542 187.995 42.0449 187.792C42.5462 187.579 43.1009 187.472 43.7089 187.472C44.3275 187.472 44.8822 187.573 45.3729 187.776C45.8635 187.979 46.2795 188.272 46.6209 188.656C46.9729 189.029 47.2395 189.483 47.4209 190.016C47.6022 190.549 47.6929 191.152 47.6929 191.824C47.6929 192.507 47.5969 193.12 47.4049 193.664C47.2235 194.208 46.9569 194.672 46.6049 195.056C46.2635 195.44 45.8422 195.739 45.3409 195.952C44.8395 196.155 44.2795 196.256 43.6609 196.256ZM43.6769 195.104C44.1249 195.104 44.5089 195.024 44.8289 194.864C45.1489 194.704 45.4102 194.48 45.6129 194.192C45.8262 193.904 45.9809 193.563 46.0769 193.168C46.1729 192.763 46.2209 192.32 46.2209 191.84C46.2209 191.371 46.1729 190.939 46.0769 190.544C45.9809 190.149 45.8262 189.813 45.6129 189.536C45.4102 189.248 45.1489 189.024 44.8289 188.864C44.5089 188.704 44.1249 188.624 43.6769 188.624C43.2289 188.624 42.8449 188.704 42.5249 188.864C42.2155 189.024 41.9542 189.248 41.7409 189.536C41.5382 189.813 41.3889 190.149 41.2929 190.544C41.1969 190.939 41.1489 191.376 41.1489 191.856C41.1489 192.336 41.1969 192.773 41.2929 193.168C41.3889 193.563 41.5382 193.904 41.7409 194.192C41.9435 194.48 42.2049 194.704 42.5249 194.864C42.8449 195.024 43.2289 195.104 43.6769 195.104ZM49.7822 187.024C49.7822 186.427 49.8942 185.941 50.1182 185.568C50.3422 185.184 50.6356 184.901 50.9982 184.72C51.3716 184.539 51.7876 184.448 52.2462 184.448C52.4916 184.448 52.7262 184.464 52.9502 184.496C53.1742 184.517 53.4089 184.565 53.6542 184.64L53.4302 185.728C53.2596 185.675 53.0942 185.643 52.9342 185.632C52.7849 185.611 52.6356 185.6 52.4862 185.6C52.1129 185.6 51.7929 185.701 51.5262 185.904C51.2596 186.096 51.1262 186.453 51.1262 186.976V187.728H53.2222V188.832H51.1262V196H49.7342V188.832H48.4382V187.776H49.1582C49.4356 187.776 49.6062 187.728 49.6702 187.632C49.7449 187.536 49.7822 187.333 49.7822 187.024ZM59.3765 193.68C59.3765 194.085 59.4672 194.411 59.6485 194.656C59.8298 194.901 60.1072 195.024 60.4805 195.024C60.7152 195.024 60.9178 195.008 61.0885 194.976C61.2698 194.933 61.4352 194.885 61.5845 194.832L61.8245 195.92C61.6112 195.995 61.3765 196.053 61.1205 196.096C60.8752 196.149 60.5818 196.176 60.2405 196.176C59.6218 196.176 59.1472 196.053 58.8165 195.808C58.4965 195.563 58.2778 195.227 58.1605 194.8C58.0432 194.363 57.9845 193.867 57.9845 193.312V188.832H56.7045V187.76H57.4245C57.7018 187.76 57.8725 187.717 57.9365 187.632C58.0112 187.547 58.0485 187.371 58.0485 187.104V185.472H59.3765V187.728H61.5685V188.832H59.3765V193.68ZM62.7314 187.728H64.1074V189.008C64.4167 188.549 64.7794 188.197 65.1954 187.952C65.6114 187.707 66.054 187.584 66.5234 187.584C66.8114 187.584 67.0567 187.605 67.2594 187.648L67.0834 188.944C66.9767 188.923 66.87 188.907 66.7634 188.896C66.6567 188.875 66.5394 188.864 66.4114 188.864C66.1554 188.864 65.894 188.912 65.6274 189.008C65.3607 189.093 65.11 189.243 64.8754 189.456C64.6407 189.659 64.454 189.893 64.3154 190.16C64.1874 190.427 64.1234 190.736 64.1234 191.088V196H62.7314V187.728ZM75.6468 187.728V196H74.2868V194.816C73.9454 195.275 73.5508 195.632 73.1028 195.888C72.6548 196.133 72.1268 196.256 71.5188 196.256C70.7081 196.256 70.0414 196.064 69.5188 195.68C69.0068 195.296 68.6228 194.773 68.3668 194.112C68.1214 193.451 67.9988 192.715 67.9988 191.904C67.9988 190.528 68.3241 189.445 68.9748 188.656C69.6361 187.867 70.5374 187.472 71.6788 187.472C72.1161 187.472 72.5641 187.568 73.0228 187.76C73.4814 187.941 73.9028 188.277 74.2868 188.768V187.728H75.6468ZM74.3028 191.616C74.3028 190.955 74.2281 190.443 74.0788 190.08C73.9401 189.707 73.7054 189.392 73.3748 189.136C73.1401 188.944 72.9001 188.811 72.6548 188.736C72.4201 188.661 72.1588 188.624 71.8708 188.624C71.4228 188.624 71.0121 188.731 70.6388 188.944C70.2761 189.157 69.9881 189.504 69.7748 189.984C69.5614 190.453 69.4548 191.083 69.4548 191.872C69.4548 192.683 69.5668 193.323 69.7908 193.792C70.0148 194.261 70.3028 194.597 70.6548 194.8C71.0068 194.992 71.3748 195.088 71.7588 195.088C72.0681 195.088 72.3454 195.056 72.5908 194.992C72.8361 194.917 73.0814 194.784 73.3268 194.592C73.6574 194.347 73.9028 194.032 74.0628 193.648C74.2228 193.253 74.3028 192.763 74.3028 192.176V191.616ZM77.482 187.728H78.858V188.992C79.2633 188.448 79.7113 188.059 80.202 187.824C80.6927 187.589 81.21 187.472 81.754 187.472C82.6927 187.472 83.386 187.728 83.834 188.24C84.2927 188.752 84.522 189.504 84.522 190.496V196H83.13V190.768C83.13 190 82.9913 189.461 82.714 189.152C82.4367 188.832 82.01 188.672 81.434 188.672C81.1247 188.672 80.8153 188.725 80.506 188.832C80.2073 188.939 79.9353 189.109 79.69 189.344C79.4233 189.579 79.2207 189.829 79.082 190.096C78.9433 190.352 78.874 190.688 78.874 191.104V196H77.482V187.728ZM87.183 193.584C87.279 194.16 87.519 194.565 87.903 194.8C88.2977 195.024 88.831 195.136 89.503 195.136C90.207 195.136 90.703 195.019 90.991 194.784C91.2897 194.539 91.439 194.219 91.439 193.824C91.439 193.664 91.4177 193.515 91.375 193.376C91.343 193.227 91.2737 193.099 91.167 192.992C91.0603 192.875 90.911 192.773 90.719 192.688C90.527 192.603 90.2763 192.533 89.967 192.48L88.911 192.32C88.4417 192.245 88.031 192.149 87.679 192.032C87.327 191.915 87.0283 191.765 86.783 191.584C86.5377 191.392 86.351 191.163 86.223 190.896C86.1057 190.619 86.047 190.288 86.047 189.904C86.047 189.52 86.127 189.179 86.287 188.88C86.4577 188.581 86.687 188.331 86.975 188.128C87.2737 187.915 87.6203 187.755 88.015 187.648C88.4203 187.531 88.8577 187.472 89.327 187.472C89.9243 187.472 90.4203 187.531 90.815 187.648C91.2203 187.765 91.551 187.925 91.807 188.128C92.063 188.331 92.2603 188.571 92.399 188.848C92.5377 189.125 92.6443 189.419 92.719 189.728L91.455 189.936C91.3803 189.712 91.295 189.515 91.199 189.344C91.103 189.173 90.975 189.035 90.815 188.928C90.655 188.811 90.4577 188.725 90.223 188.672C89.999 188.608 89.7163 188.576 89.375 188.576C88.991 188.576 88.671 188.613 88.415 188.688C88.159 188.752 87.951 188.843 87.791 188.96C87.6417 189.077 87.535 189.211 87.471 189.36C87.407 189.499 87.375 189.648 87.375 189.808C87.375 189.979 87.3963 190.133 87.439 190.272C87.4817 190.4 87.5617 190.517 87.679 190.624C87.7963 190.72 87.9563 190.805 88.159 190.88C88.3617 190.955 88.623 191.019 88.943 191.072L90.143 191.264C91.1137 191.424 91.807 191.701 92.223 192.096C92.6497 192.491 92.863 193.067 92.863 193.824C92.863 194.176 92.7937 194.501 92.655 194.8C92.5163 195.088 92.3083 195.344 92.031 195.568C91.7537 195.781 91.407 195.947 90.991 196.064C90.575 196.192 90.0897 196.256 89.535 196.256C89.0337 196.256 88.5643 196.208 88.127 196.112C87.7003 196.016 87.3217 195.867 86.991 195.664C86.6603 195.451 86.3937 195.173 86.191 194.832C85.9883 194.491 85.871 194.075 85.839 193.584H87.183ZM94.8704 187.024C94.8704 186.427 94.9824 185.941 95.2064 185.568C95.4304 185.184 95.7237 184.901 96.0864 184.72C96.4597 184.539 96.8757 184.448 97.3344 184.448C97.5797 184.448 97.8144 184.464 98.0384 184.496C98.2624 184.517 98.497 184.565 98.7424 184.64L98.5184 185.728C98.3477 185.675 98.1824 185.643 98.0224 185.632C97.873 185.611 97.7237 185.6 97.5744 185.6C97.201 185.6 96.881 185.701 96.6144 185.904C96.3477 186.096 96.2144 186.453 96.2144 186.976V187.728H98.3104V188.832H96.2144V196H94.8224V188.832H93.5264V187.776H94.2464C94.5237 187.776 94.6944 187.728 94.7584 187.632C94.833 187.536 94.8704 187.333 94.8704 187.024ZM106.19 193.68C106.051 194.48 105.694 195.109 105.118 195.568C104.552 196.027 103.736 196.256 102.67 196.256C101.411 196.256 100.446 195.877 99.7736 195.12C99.1016 194.352 98.7656 193.285 98.7656 191.92C98.7656 191.205 98.8616 190.571 99.0536 190.016C99.2456 189.461 99.5123 188.997 99.8536 188.624C100.206 188.251 100.622 187.968 101.102 187.776C101.582 187.573 102.104 187.472 102.67 187.472C103.31 187.472 103.859 187.573 104.318 187.776C104.776 187.979 105.15 188.261 105.438 188.624C105.736 188.976 105.955 189.397 106.094 189.888C106.243 190.379 106.318 190.917 106.318 191.504V192.208H100.174C100.174 192.624 100.227 193.013 100.334 193.376C100.451 193.728 100.611 194.037 100.814 194.304C101.027 194.56 101.288 194.763 101.598 194.912C101.907 195.061 102.264 195.136 102.67 195.136C103.363 195.136 103.87 195.008 104.19 194.752C104.51 194.485 104.728 194.128 104.846 193.68H106.19ZM104.926 191.168C104.926 190.773 104.883 190.416 104.798 190.096C104.712 189.776 104.579 189.504 104.398 189.28C104.216 189.045 103.982 188.864 103.694 188.736C103.406 188.608 103.059 188.544 102.654 188.544C101.918 188.544 101.342 188.768 100.926 189.216C100.52 189.664 100.28 190.315 100.206 191.168H104.926ZM107.843 187.728H109.219V189.008C109.528 188.549 109.891 188.197 110.307 187.952C110.723 187.707 111.165 187.584 111.635 187.584C111.923 187.584 112.168 187.605 112.371 187.648L112.195 188.944C112.088 188.923 111.981 188.907 111.875 188.896C111.768 188.875 111.651 188.864 111.523 188.864C111.267 188.864 111.005 188.912 110.739 189.008C110.472 189.093 110.221 189.243 109.987 189.456C109.752 189.659 109.565 189.893 109.427 190.16C109.299 190.427 109.235 190.736 109.235 191.088V196H107.843V187.728ZM114.122 193.584C114.218 194.16 114.458 194.565 114.842 194.8C115.236 195.024 115.77 195.136 116.442 195.136C117.146 195.136 117.642 195.019 117.93 194.784C118.228 194.539 118.378 194.219 118.378 193.824C118.378 193.664 118.356 193.515 118.314 193.376C118.282 193.227 118.212 193.099 118.106 192.992C117.999 192.875 117.85 192.773 117.658 192.688C117.466 192.603 117.215 192.533 116.906 192.48L115.85 192.32C115.38 192.245 114.97 192.149 114.618 192.032C114.266 191.915 113.967 191.765 113.722 191.584C113.476 191.392 113.29 191.163 113.162 190.896C113.044 190.619 112.986 190.288 112.986 189.904C112.986 189.52 113.066 189.179 113.226 188.88C113.396 188.581 113.626 188.331 113.914 188.128C114.212 187.915 114.559 187.755 114.954 187.648C115.359 187.531 115.796 187.472 116.266 187.472C116.863 187.472 117.359 187.531 117.754 187.648C118.159 187.765 118.49 187.925 118.746 188.128C119.002 188.331 119.199 188.571 119.338 188.848C119.476 189.125 119.583 189.419 119.658 189.728L118.394 189.936C118.319 189.712 118.234 189.515 118.138 189.344C118.042 189.173 117.914 189.035 117.754 188.928C117.594 188.811 117.396 188.725 117.162 188.672C116.938 188.608 116.655 188.576 116.314 188.576C115.93 188.576 115.61 188.613 115.354 188.688C115.098 188.752 114.89 188.843 114.73 188.96C114.58 189.077 114.474 189.211 114.41 189.36C114.346 189.499 114.314 189.648 114.314 189.808C114.314 189.979 114.335 190.133 114.378 190.272C114.42 190.4 114.5 190.517 114.618 190.624C114.735 190.72 114.895 190.805 115.098 190.88C115.3 190.955 115.562 191.019 115.882 191.072L117.082 191.264C118.052 191.424 118.746 191.701 119.162 192.096C119.588 192.491 119.802 193.067 119.802 193.824C119.802 194.176 119.732 194.501 119.594 194.8C119.455 195.088 119.247 195.344 118.97 195.568C118.692 195.781 118.346 195.947 117.93 196.064C117.514 196.192 117.028 196.256 116.474 196.256C115.972 196.256 115.503 196.208 115.066 196.112C114.639 196.016 114.26 195.867 113.93 195.664C113.599 195.451 113.332 195.173 113.13 194.832C112.927 194.491 112.81 194.075 112.778 193.584H114.122ZM131.66 193.68C131.521 194.48 131.164 195.109 130.588 195.568C130.022 196.027 129.206 196.256 128.14 196.256C126.881 196.256 125.916 195.877 125.244 195.12C124.572 194.352 124.236 193.285 124.236 191.92C124.236 191.205 124.332 190.571 124.524 190.016C124.716 189.461 124.982 188.997 125.324 188.624C125.676 188.251 126.092 187.968 126.572 187.776C127.052 187.573 127.574 187.472 128.14 187.472C128.78 187.472 129.329 187.573 129.788 187.776C130.246 187.979 130.62 188.261 130.908 188.624C131.206 188.976 131.425 189.397 131.564 189.888C131.713 190.379 131.788 190.917 131.788 191.504V192.208H125.644C125.644 192.624 125.697 193.013 125.804 193.376C125.921 193.728 126.081 194.037 126.284 194.304C126.497 194.56 126.758 194.763 127.068 194.912C127.377 195.061 127.734 195.136 128.14 195.136C128.833 195.136 129.34 195.008 129.66 194.752C129.98 194.485 130.198 194.128 130.316 193.68H131.66ZM130.396 191.168C130.396 190.773 130.353 190.416 130.268 190.096C130.182 189.776 130.049 189.504 129.868 189.28C129.686 189.045 129.452 188.864 129.164 188.736C128.876 188.608 128.529 188.544 128.124 188.544C127.388 188.544 126.812 188.768 126.396 189.216C125.99 189.664 125.75 190.315 125.676 191.168H130.396ZM135.066 191.648L132.298 187.728H133.93L135.898 190.656L137.946 187.728H139.434L136.714 191.632L139.722 196H138.106L135.834 192.656L133.546 196H132.01L135.066 191.648ZM140.633 187.728H142.009V188.912C142.351 188.443 142.745 188.085 143.193 187.84C143.652 187.595 144.185 187.472 144.793 187.472C145.38 187.472 145.892 187.579 146.329 187.792C146.777 188.005 147.145 188.304 147.433 188.688C147.732 189.072 147.951 189.531 148.089 190.064C148.239 190.587 148.313 191.168 148.313 191.808C148.313 192.491 148.228 193.109 148.057 193.664C147.887 194.208 147.641 194.672 147.321 195.056C147.001 195.44 146.612 195.739 146.153 195.952C145.705 196.155 145.199 196.256 144.633 196.256C144.164 196.256 143.7 196.165 143.241 195.984C142.793 195.792 142.388 195.456 142.025 194.976V199.104H140.633V187.728ZM142.009 192.096C142.009 192.629 142.068 193.088 142.185 193.472C142.313 193.845 142.484 194.155 142.697 194.4C142.911 194.645 143.167 194.827 143.465 194.944C143.764 195.051 144.089 195.104 144.441 195.104C144.783 195.104 145.097 195.045 145.385 194.928C145.684 194.811 145.94 194.624 146.153 194.368C146.367 194.101 146.532 193.76 146.649 193.344C146.777 192.928 146.841 192.421 146.841 191.824C146.841 191.216 146.772 190.709 146.633 190.304C146.505 189.888 146.335 189.557 146.121 189.312C145.908 189.067 145.663 188.891 145.385 188.784C145.119 188.677 144.841 188.624 144.553 188.624C144.191 188.624 143.855 188.688 143.545 188.816C143.236 188.933 142.964 189.115 142.729 189.36C142.505 189.595 142.329 189.899 142.201 190.272C142.073 190.635 142.009 191.056 142.009 191.536V192.096ZM149.652 185.408C149.652 185.141 149.743 184.923 149.924 184.752C150.105 184.571 150.324 184.48 150.58 184.48C150.857 184.48 151.081 184.565 151.252 184.736C151.423 184.907 151.508 185.131 151.508 185.408C151.508 185.675 151.423 185.899 151.252 186.08C151.081 186.251 150.857 186.336 150.58 186.336C150.313 186.336 150.089 186.251 149.908 186.08C149.737 185.899 149.652 185.675 149.652 185.408ZM149.892 196V187.728H151.284V196H149.892ZM153.134 187.728H154.51V189.008C154.819 188.549 155.182 188.197 155.598 187.952C156.014 187.707 156.457 187.584 156.926 187.584C157.214 187.584 157.459 187.605 157.662 187.648L157.486 188.944C157.379 188.923 157.273 188.907 157.166 188.896C157.059 188.875 156.942 188.864 156.814 188.864C156.558 188.864 156.297 188.912 156.03 189.008C155.763 189.093 155.513 189.243 155.278 189.456C155.043 189.659 154.857 189.893 154.718 190.16C154.59 190.427 154.526 190.736 154.526 191.088V196H153.134V187.728ZM158.465 185.408C158.465 185.141 158.556 184.923 158.737 184.752C158.919 184.571 159.137 184.48 159.393 184.48C159.671 184.48 159.895 184.565 160.065 184.736C160.236 184.907 160.321 185.131 160.321 185.408C160.321 185.675 160.236 185.899 160.065 186.08C159.895 186.251 159.671 186.336 159.393 186.336C159.127 186.336 158.903 186.251 158.721 186.08C158.551 185.899 158.465 185.675 158.465 185.408ZM158.705 196V187.728H160.097V196H158.705ZM161.947 187.728H163.323V188.992C163.728 188.448 164.176 188.059 164.667 187.824C165.158 187.589 165.675 187.472 166.219 187.472C167.158 187.472 167.851 187.728 168.299 188.24C168.758 188.752 168.987 189.504 168.987 190.496V196H167.595V190.768C167.595 190 167.456 189.461 167.179 189.152C166.902 188.832 166.475 188.672 165.899 188.672C165.59 188.672 165.28 188.725 164.971 188.832C164.672 188.939 164.4 189.109 164.155 189.344C163.888 189.579 163.686 189.829 163.547 190.096C163.408 190.352 163.339 190.688 163.339 191.104V196H161.947V187.728ZM172.16 196.768C172.277 197.269 172.501 197.627 172.832 197.84C173.173 198.053 173.701 198.16 174.416 198.16C175.291 198.16 175.893 197.915 176.224 197.424C176.565 196.944 176.736 196.24 176.736 195.312V194.432C176.416 194.88 176.027 195.227 175.568 195.472C175.12 195.717 174.592 195.84 173.984 195.84C173.387 195.84 172.864 195.733 172.416 195.52C171.979 195.296 171.616 194.997 171.328 194.624C171.04 194.24 170.821 193.797 170.672 193.296C170.533 192.795 170.464 192.256 170.464 191.68C170.464 191.051 170.549 190.48 170.72 189.968C170.891 189.445 171.136 189.003 171.456 188.64C171.776 188.267 172.16 187.979 172.608 187.776C173.067 187.573 173.579 187.472 174.144 187.472C174.603 187.472 175.056 187.568 175.504 187.76C175.963 187.941 176.379 188.283 176.752 188.784V187.728H178.128V194.656C178.128 195.371 178.075 196.011 177.968 196.576C177.872 197.152 177.685 197.637 177.408 198.032C177.141 198.437 176.768 198.747 176.288 198.96C175.808 199.173 175.189 199.28 174.432 199.28C173.344 199.28 172.491 199.083 171.872 198.688C171.253 198.304 170.891 197.664 170.784 196.768H172.16ZM176.768 191.552C176.768 191.008 176.704 190.555 176.576 190.192C176.448 189.819 176.272 189.515 176.048 189.28C175.824 189.045 175.563 188.88 175.264 188.784C174.976 188.677 174.672 188.624 174.352 188.624C174.011 188.624 173.691 188.683 173.392 188.8C173.104 188.907 172.848 189.083 172.624 189.328C172.411 189.573 172.24 189.888 172.112 190.272C171.995 190.656 171.936 191.12 171.936 191.664C171.936 192.219 172 192.688 172.128 193.072C172.267 193.456 172.443 193.765 172.656 194C172.869 194.235 173.115 194.405 173.392 194.512C173.68 194.619 173.968 194.672 174.256 194.672C174.619 194.672 174.949 194.613 175.248 194.496C175.557 194.379 175.824 194.203 176.048 193.968C176.272 193.733 176.448 193.44 176.576 193.088C176.704 192.725 176.768 192.304 176.768 191.824V191.552ZM186.902 196.256C186.273 196.256 185.713 196.155 185.222 195.952C184.731 195.749 184.315 195.461 183.974 195.088C183.633 194.715 183.371 194.256 183.19 193.712C183.009 193.168 182.918 192.56 182.918 191.888C182.918 191.216 183.014 190.608 183.206 190.064C183.398 189.52 183.67 189.056 184.022 188.672C184.374 188.288 184.795 187.995 185.286 187.792C185.787 187.579 186.342 187.472 186.95 187.472C187.569 187.472 188.123 187.573 188.614 187.776C189.105 187.979 189.521 188.272 189.862 188.656C190.214 189.029 190.481 189.483 190.662 190.016C190.843 190.549 190.934 191.152 190.934 191.824C190.934 192.507 190.838 193.12 190.646 193.664C190.465 194.208 190.198 194.672 189.846 195.056C189.505 195.44 189.083 195.739 188.582 195.952C188.081 196.155 187.521 196.256 186.902 196.256ZM186.918 195.104C187.366 195.104 187.75 195.024 188.07 194.864C188.39 194.704 188.651 194.48 188.854 194.192C189.067 193.904 189.222 193.563 189.318 193.168C189.414 192.763 189.462 192.32 189.462 191.84C189.462 191.371 189.414 190.939 189.318 190.544C189.222 190.149 189.067 189.813 188.854 189.536C188.651 189.248 188.39 189.024 188.07 188.864C187.75 188.704 187.366 188.624 186.918 188.624C186.47 188.624 186.086 188.704 185.766 188.864C185.457 189.024 185.195 189.248 184.982 189.536C184.779 189.813 184.63 190.149 184.534 190.544C184.438 190.939 184.39 191.376 184.39 191.856C184.39 192.336 184.438 192.773 184.534 193.168C184.63 193.563 184.779 193.904 184.982 194.192C185.185 194.48 185.446 194.704 185.766 194.864C186.086 195.024 186.47 195.104 186.918 195.104ZM191.207 187.728H192.823L195.287 194.448L197.799 187.728H199.335L196.007 196H194.519L191.207 187.728ZM207.03 193.68C206.892 194.48 206.534 195.109 205.958 195.568C205.393 196.027 204.577 196.256 203.51 196.256C202.252 196.256 201.286 195.877 200.614 195.12C199.942 194.352 199.606 193.285 199.606 191.92C199.606 191.205 199.702 190.571 199.894 190.016C200.086 189.461 200.353 188.997 200.694 188.624C201.046 188.251 201.462 187.968 201.942 187.776C202.422 187.573 202.945 187.472 203.51 187.472C204.15 187.472 204.7 187.573 205.158 187.776C205.617 187.979 205.99 188.261 206.278 188.624C206.577 188.976 206.796 189.397 206.934 189.888C207.084 190.379 207.158 190.917 207.158 191.504V192.208H201.014C201.014 192.624 201.068 193.013 201.174 193.376C201.292 193.728 201.452 194.037 201.654 194.304C201.868 194.56 202.129 194.763 202.438 194.912C202.748 195.061 203.105 195.136 203.51 195.136C204.204 195.136 204.71 195.008 205.03 194.752C205.35 194.485 205.569 194.128 205.686 193.68H207.03ZM205.766 191.168C205.766 190.773 205.724 190.416 205.638 190.096C205.553 189.776 205.42 189.504 205.238 189.28C205.057 189.045 204.822 188.864 204.534 188.736C204.246 188.608 203.9 188.544 203.494 188.544C202.758 188.544 202.182 188.768 201.766 189.216C201.361 189.664 201.121 190.315 201.046 191.168H205.766ZM208.683 187.728H210.059V189.008C210.369 188.549 210.731 188.197 211.147 187.952C211.563 187.707 212.006 187.584 212.475 187.584C212.763 187.584 213.009 187.605 213.211 187.648L213.035 188.944C212.929 188.923 212.822 188.907 212.715 188.896C212.609 188.875 212.491 188.864 212.363 188.864C212.107 188.864 211.846 188.912 211.579 189.008C211.313 189.093 211.062 189.243 210.827 189.456C210.593 189.659 210.406 189.893 210.267 190.16C210.139 190.427 210.075 190.736 210.075 191.088V196H208.683V187.728ZM219.337 193.68C219.337 194.085 219.428 194.411 219.609 194.656C219.79 194.901 220.068 195.024 220.441 195.024C220.676 195.024 220.878 195.008 221.049 194.976C221.23 194.933 221.396 194.885 221.545 194.832L221.785 195.92C221.572 195.995 221.337 196.053 221.081 196.096C220.836 196.149 220.542 196.176 220.201 196.176C219.582 196.176 219.108 196.053 218.777 195.808C218.457 195.563 218.238 195.227 218.121 194.8C218.004 194.363 217.945 193.867 217.945 193.312V188.832H216.665V187.76H217.385C217.662 187.76 217.833 187.717 217.897 187.632C217.972 187.547 218.009 187.371 218.009 187.104V185.472H219.337V187.728H221.529V188.832H219.337V193.68ZM222.692 184.576H224.084V188.96C224.489 188.437 224.932 188.059 225.412 187.824C225.903 187.589 226.42 187.472 226.964 187.472C227.903 187.472 228.596 187.728 229.044 188.24C229.503 188.752 229.732 189.504 229.732 190.496V196H228.324V190.768C228.324 190 228.185 189.461 227.908 189.152C227.641 188.832 227.22 188.672 226.644 188.672C226.335 188.672 226.025 188.725 225.716 188.832C225.417 188.939 225.145 189.109 224.9 189.344C224.633 189.579 224.431 189.829 224.292 190.096C224.153 190.352 224.084 190.688 224.084 191.104V196H222.692V184.576ZM238.649 193.68C238.51 194.48 238.153 195.109 237.577 195.568C237.012 196.027 236.196 196.256 235.129 196.256C233.87 196.256 232.905 195.877 232.233 195.12C231.561 194.352 231.225 193.285 231.225 191.92C231.225 191.205 231.321 190.571 231.513 190.016C231.705 189.461 231.972 188.997 232.313 188.624C232.665 188.251 233.081 187.968 233.561 187.776C234.041 187.573 234.564 187.472 235.129 187.472C235.769 187.472 236.318 187.573 236.777 187.776C237.236 187.979 237.609 188.261 237.897 188.624C238.196 188.976 238.414 189.397 238.553 189.888C238.702 190.379 238.777 190.917 238.777 191.504V192.208H232.633C232.633 192.624 232.686 193.013 232.793 193.376C232.91 193.728 233.07 194.037 233.273 194.304C233.486 194.56 233.748 194.763 234.057 194.912C234.366 195.061 234.724 195.136 235.129 195.136C235.822 195.136 236.329 195.008 236.649 194.752C236.969 194.485 237.188 194.128 237.305 193.68H238.649ZM237.385 191.168C237.385 190.773 237.342 190.416 237.257 190.096C237.172 189.776 237.038 189.504 236.857 189.28C236.676 189.045 236.441 188.864 236.153 188.736C235.865 188.608 235.518 188.544 235.113 188.544C234.377 188.544 233.801 188.768 233.385 189.216C232.98 189.664 232.74 190.315 232.665 191.168H237.385ZM242.601 187.728H244.121L245.785 194.32L247.689 187.776H249.097L250.953 194.32L252.601 187.728H254.073L251.657 196H250.185L248.329 189.408L246.457 196H245.001L242.601 187.728ZM261.876 193.68C261.738 194.48 261.38 195.109 260.804 195.568C260.239 196.027 259.423 196.256 258.356 196.256C257.098 196.256 256.132 195.877 255.46 195.12C254.788 194.352 254.452 193.285 254.452 191.92C254.452 191.205 254.548 190.571 254.74 190.016C254.932 189.461 255.199 188.997 255.54 188.624C255.892 188.251 256.308 187.968 256.788 187.776C257.268 187.573 257.791 187.472 258.356 187.472C258.996 187.472 259.546 187.573 260.004 187.776C260.463 187.979 260.836 188.261 261.124 188.624C261.423 188.976 261.642 189.397 261.78 189.888C261.93 190.379 262.004 190.917 262.004 191.504V192.208H255.86C255.86 192.624 255.914 193.013 256.02 193.376C256.138 193.728 256.298 194.037 256.5 194.304C256.714 194.56 256.975 194.763 257.284 194.912C257.594 195.061 257.951 195.136 258.356 195.136C259.05 195.136 259.556 195.008 259.876 194.752C260.196 194.485 260.415 194.128 260.532 193.68H261.876ZM260.612 191.168C260.612 190.773 260.57 190.416 260.484 190.096C260.399 189.776 260.266 189.504 260.084 189.28C259.903 189.045 259.668 188.864 259.38 188.736C259.092 188.608 258.746 188.544 258.34 188.544C257.604 188.544 257.028 188.768 256.612 189.216C256.207 189.664 255.967 190.315 255.892 191.168H260.612ZM270.681 193.68C270.543 194.48 270.185 195.109 269.609 195.568C269.044 196.027 268.228 196.256 267.161 196.256C265.903 196.256 264.937 195.877 264.265 195.12C263.593 194.352 263.257 193.285 263.257 191.92C263.257 191.205 263.353 190.571 263.545 190.016C263.737 189.461 264.004 188.997 264.345 188.624C264.697 188.251 265.113 187.968 265.593 187.776C266.073 187.573 266.596 187.472 267.161 187.472C267.801 187.472 268.351 187.573 268.809 187.776C269.268 187.979 269.641 188.261 269.929 188.624C270.228 188.976 270.447 189.397 270.585 189.888C270.735 190.379 270.809 190.917 270.809 191.504V192.208H264.665C264.665 192.624 264.719 193.013 264.825 193.376C264.943 193.728 265.103 194.037 265.305 194.304C265.519 194.56 265.78 194.763 266.089 194.912C266.399 195.061 266.756 195.136 267.161 195.136C267.855 195.136 268.361 195.008 268.681 194.752C269.001 194.485 269.22 194.128 269.337 193.68H270.681ZM269.417 191.168C269.417 190.773 269.375 190.416 269.289 190.096C269.204 189.776 269.071 189.504 268.889 189.28C268.708 189.045 268.473 188.864 268.185 188.736C267.897 188.608 267.551 188.544 267.145 188.544C266.409 188.544 265.833 188.768 265.417 189.216C265.012 189.664 264.772 190.315 264.697 191.168H269.417ZM273.711 184.576V191.568L277.407 187.728H279.183L275.247 191.664L279.375 196H277.567L273.711 191.936V196H272.335V184.576H273.711ZM286.963 193.68C286.825 194.48 286.467 195.109 285.891 195.568C285.326 196.027 284.51 196.256 283.443 196.256C282.185 196.256 281.219 195.877 280.547 195.12C279.875 194.352 279.539 193.285 279.539 191.92C279.539 191.205 279.635 190.571 279.827 190.016C280.019 189.461 280.286 188.997 280.627 188.624C280.979 188.251 281.395 187.968 281.875 187.776C282.355 187.573 282.878 187.472 283.443 187.472C284.083 187.472 284.633 187.573 285.091 187.776C285.55 187.979 285.923 188.261 286.211 188.624C286.51 188.976 286.729 189.397 286.867 189.888C287.017 190.379 287.091 190.917 287.091 191.504V192.208H280.947C280.947 192.624 281.001 193.013 281.107 193.376C281.225 193.728 281.385 194.037 281.587 194.304C281.801 194.56 282.062 194.763 282.371 194.912C282.681 195.061 283.038 195.136 283.443 195.136C284.137 195.136 284.643 195.008 284.963 194.752C285.283 194.485 285.502 194.128 285.619 193.68H286.963ZM285.699 191.168C285.699 190.773 285.657 190.416 285.571 190.096C285.486 189.776 285.353 189.504 285.171 189.28C284.99 189.045 284.755 188.864 284.467 188.736C284.179 188.608 283.833 188.544 283.427 188.544C282.691 188.544 282.115 188.768 281.699 189.216C281.294 189.664 281.054 190.315 280.979 191.168H285.699ZM288.616 187.728H289.992V188.992C290.398 188.448 290.846 188.059 291.336 187.824C291.827 187.589 292.344 187.472 292.888 187.472C293.827 187.472 294.52 187.728 294.968 188.24C295.427 188.752 295.656 189.504 295.656 190.496V196H294.264V190.768C294.264 190 294.126 189.461 293.848 189.152C293.571 188.832 293.144 188.672 292.568 188.672C292.259 188.672 291.95 188.725 291.64 188.832C291.342 188.939 291.07 189.109 290.824 189.344C290.558 189.579 290.355 189.829 290.216 190.096C290.078 190.352 290.008 190.688 290.008 191.104V196H288.616V187.728ZM303.437 194.816C303.096 195.275 302.701 195.632 302.253 195.888C301.805 196.133 301.277 196.256 300.669 196.256C300.061 196.256 299.533 196.144 299.085 195.92C298.648 195.696 298.285 195.392 297.997 195.008C297.709 194.613 297.496 194.149 297.357 193.616C297.219 193.083 297.149 192.512 297.149 191.904C297.149 191.221 297.235 190.608 297.405 190.064C297.576 189.509 297.816 189.04 298.125 188.656C298.445 188.272 298.829 187.979 299.277 187.776C299.736 187.573 300.253 187.472 300.829 187.472C301.267 187.472 301.709 187.563 302.157 187.744C302.605 187.915 303.021 188.245 303.405 188.736V184.576H304.797V196H303.437V194.816ZM303.453 191.616C303.453 190.955 303.379 190.443 303.229 190.08C303.091 189.707 302.856 189.392 302.525 189.136C302.291 188.944 302.051 188.811 301.805 188.736C301.571 188.661 301.309 188.624 301.021 188.624C300.68 188.624 300.36 188.683 300.061 188.8C299.773 188.917 299.517 189.109 299.293 189.376C299.08 189.632 298.909 189.968 298.781 190.384C298.664 190.789 298.605 191.285 298.605 191.872C298.605 192.48 298.669 192.992 298.797 193.408C298.936 193.824 299.112 194.155 299.325 194.4C299.549 194.645 299.795 194.821 300.061 194.928C300.339 195.035 300.621 195.088 300.909 195.088C301.219 195.088 301.496 195.051 301.741 194.976C301.987 194.901 302.232 194.773 302.477 194.592C302.797 194.336 303.037 194.016 303.197 193.632C303.368 193.248 303.453 192.763 303.453 192.176V191.616ZM308.697 192.72V192.48C308.697 192.011 308.787 191.611 308.969 191.28C309.15 190.949 309.374 190.651 309.641 190.384C309.907 190.107 310.169 189.829 310.425 189.552C310.681 189.307 310.915 189.029 311.129 188.72C311.342 188.4 311.449 187.995 311.449 187.504C311.47 186.928 311.315 186.464 310.985 186.112C310.665 185.76 310.185 185.584 309.545 185.584C308.851 185.584 308.323 185.739 307.961 186.048C307.609 186.357 307.342 186.853 307.161 187.536L305.881 187.328C305.977 186.816 306.158 186.336 306.425 185.888C306.702 185.44 307.097 185.077 307.609 184.8C308.121 184.523 308.771 184.384 309.561 184.384C310.638 184.384 311.459 184.661 312.025 185.216C312.601 185.771 312.889 186.48 312.889 187.344C312.889 187.984 312.761 188.512 312.505 188.928C312.259 189.344 311.966 189.717 311.625 190.048C311.369 190.304 311.118 190.555 310.873 190.8C310.638 191.035 310.446 191.291 310.297 191.568C310.147 191.835 310.073 192.149 310.073 192.512V192.72H308.697ZM308.393 195.296C308.393 195.019 308.483 194.789 308.665 194.608C308.846 194.427 309.081 194.336 309.369 194.336C309.657 194.336 309.891 194.427 310.073 194.608C310.254 194.789 310.345 195.019 310.345 195.296C310.345 195.573 310.254 195.803 310.073 195.984C309.891 196.165 309.657 196.256 309.369 196.256C309.081 196.256 308.846 196.165 308.665 195.984C308.483 195.803 308.393 195.573 308.393 195.296ZM317.667 184.576H325.459V186.608H320.051V189.104H325.139V191.152H320.051V193.968H325.795L325.555 196H317.667V184.576ZM329.143 191.712L326.407 187.648H329.047L330.471 190.032L332.071 187.648H334.407L331.703 191.584L334.615 196H332.023L330.327 193.28L328.551 196H326.119L329.143 191.712ZM336.16 189.392H334.848V187.68H335.568C335.845 187.68 336.021 187.632 336.096 187.536C336.17 187.44 336.208 187.259 336.208 186.992V185.424H338.4V187.648H340.32V189.392H338.4V193.248C338.4 193.685 338.49 193.984 338.672 194.144C338.853 194.293 339.088 194.368 339.376 194.368C339.696 194.368 340 194.331 340.288 194.256L340.608 195.904C340.298 196 339.994 196.064 339.696 196.096C339.408 196.139 339.13 196.16 338.864 196.16C337.946 196.16 337.264 195.941 336.816 195.504C336.378 195.067 336.16 194.331 336.16 193.296V189.392ZM348.882 193.392C348.733 194.331 348.354 195.045 347.746 195.536C347.149 196.016 346.274 196.256 345.122 196.256C343.735 196.256 342.69 195.872 341.986 195.104C341.293 194.336 340.946 193.248 340.946 191.84C340.946 191.136 341.047 190.512 341.25 189.968C341.453 189.413 341.735 188.944 342.098 188.56C342.471 188.176 342.914 187.888 343.426 187.696C343.938 187.493 344.503 187.392 345.122 187.392C346.402 187.392 347.362 187.76 348.002 188.496C348.653 189.232 348.978 190.224 348.978 191.472V192.368H343.186C343.207 193.04 343.378 193.568 343.698 193.952C344.018 194.325 344.498 194.512 345.138 194.512C346.023 194.512 346.546 194.139 346.706 193.392H348.882ZM346.818 190.896C346.818 190.32 346.674 189.872 346.386 189.552C346.109 189.232 345.671 189.072 345.074 189.072C344.775 189.072 344.514 189.12 344.29 189.216C344.066 189.312 343.874 189.445 343.714 189.616C343.565 189.776 343.447 189.968 343.362 190.192C343.277 190.405 343.229 190.64 343.218 190.896H346.818ZM350.336 187.648H352.512V188.8C352.842 188.309 353.232 187.952 353.68 187.728C354.138 187.504 354.613 187.392 355.104 187.392C356.053 187.392 356.757 187.643 357.216 188.144C357.674 188.635 357.904 189.413 357.904 190.48V196H355.664V190.784C355.664 190.197 355.552 189.797 355.328 189.584C355.104 189.371 354.805 189.264 354.432 189.264C354.144 189.264 353.893 189.307 353.68 189.392C353.477 189.477 353.285 189.6 353.104 189.76C352.954 189.909 352.826 190.091 352.72 190.304C352.624 190.507 352.576 190.731 352.576 190.976V196H350.336V187.648ZM365.276 194.896C364.636 195.803 363.772 196.256 362.684 196.256C361.511 196.256 360.636 195.861 360.06 195.072C359.484 194.283 359.196 193.189 359.196 191.792C359.196 191.141 359.276 190.549 359.436 190.016C359.607 189.472 359.847 189.008 360.156 188.624C360.466 188.229 360.844 187.925 361.292 187.712C361.74 187.499 362.247 187.392 362.812 187.392C363.228 187.392 363.639 187.467 364.044 187.616C364.46 187.765 364.85 188.053 365.212 188.48V184.576H367.452V196H365.276V194.896ZM365.228 191.728C365.228 191.195 365.18 190.768 365.084 190.448C364.999 190.128 364.855 189.867 364.652 189.664C364.46 189.472 364.247 189.349 364.012 189.296C363.788 189.232 363.564 189.2 363.34 189.2C363.095 189.2 362.86 189.248 362.636 189.344C362.423 189.44 362.231 189.589 362.06 189.792C361.9 189.995 361.772 190.261 361.676 190.592C361.58 190.923 361.532 191.317 361.532 191.776C361.532 192.277 361.575 192.699 361.66 193.04C361.756 193.371 361.884 193.643 362.044 193.856C362.204 194.059 362.391 194.208 362.604 194.304C362.818 194.389 363.047 194.432 363.292 194.432C363.826 194.432 364.263 194.277 364.604 193.968C364.818 193.755 364.972 193.499 365.068 193.2C365.175 192.891 365.228 192.496 365.228 192.016V191.728ZM374.312 193.68C374.312 194.085 374.403 194.411 374.584 194.656C374.765 194.901 375.043 195.024 375.416 195.024C375.651 195.024 375.853 195.008 376.024 194.976C376.205 194.933 376.371 194.885 376.52 194.832L376.76 195.92C376.547 195.995 376.312 196.053 376.056 196.096C375.811 196.149 375.517 196.176 375.176 196.176C374.557 196.176 374.083 196.053 373.752 195.808C373.432 195.563 373.213 195.227 373.096 194.8C372.979 194.363 372.92 193.867 372.92 193.312V188.832H371.64V187.76H372.36C372.637 187.76 372.808 187.717 372.872 187.632C372.947 187.547 372.984 187.371 372.984 187.104V185.472H374.312V187.728H376.504V188.832H374.312V193.68ZM377.667 184.576H379.059V188.96C379.464 188.437 379.907 188.059 380.387 187.824C380.878 187.589 381.395 187.472 381.939 187.472C382.878 187.472 383.571 187.728 384.019 188.24C384.478 188.752 384.707 189.504 384.707 190.496V196H383.299V190.768C383.299 190 383.16 189.461 382.883 189.152C382.616 188.832 382.195 188.672 381.619 188.672C381.31 188.672 381 188.725 380.691 188.832C380.392 188.939 380.12 189.109 379.875 189.344C379.608 189.579 379.406 189.829 379.267 190.096C379.128 190.352 379.059 190.688 379.059 191.104V196H377.667V184.576ZM393.624 193.68C393.485 194.48 393.128 195.109 392.552 195.568C391.987 196.027 391.171 196.256 390.104 196.256C388.845 196.256 387.88 195.877 387.208 195.12C386.536 194.352 386.2 193.285 386.2 191.92C386.2 191.205 386.296 190.571 386.488 190.016C386.68 189.461 386.947 188.997 387.288 188.624C387.64 188.251 388.056 187.968 388.536 187.776C389.016 187.573 389.539 187.472 390.104 187.472C390.744 187.472 391.293 187.573 391.752 187.776C392.211 187.979 392.584 188.261 392.872 188.624C393.171 188.976 393.389 189.397 393.528 189.888C393.677 190.379 393.752 190.917 393.752 191.504V192.208H387.608C387.608 192.624 387.661 193.013 387.768 193.376C387.885 193.728 388.045 194.037 388.248 194.304C388.461 194.56 388.723 194.763 389.032 194.912C389.341 195.061 389.699 195.136 390.104 195.136C390.797 195.136 391.304 195.008 391.624 194.752C391.944 194.485 392.163 194.128 392.28 193.68H393.624ZM392.36 191.168C392.36 190.773 392.317 190.416 392.232 190.096C392.147 189.776 392.013 189.504 391.832 189.28C391.651 189.045 391.416 188.864 391.128 188.736C390.84 188.608 390.493 188.544 390.088 188.544C389.352 188.544 388.776 188.768 388.36 189.216C387.955 189.664 387.715 190.315 387.64 191.168H392.36ZM405.672 193.68C405.533 194.48 405.176 195.109 404.6 195.568C404.034 196.027 403.218 196.256 402.152 196.256C400.893 196.256 399.928 195.877 399.256 195.12C398.584 194.352 398.248 193.285 398.248 191.92C398.248 191.205 398.344 190.571 398.536 190.016C398.728 189.461 398.994 188.997 399.336 188.624C399.688 188.251 400.104 187.968 400.584 187.776C401.064 187.573 401.586 187.472 402.152 187.472C402.792 187.472 403.341 187.573 403.8 187.776C404.258 187.979 404.632 188.261 404.92 188.624C405.218 188.976 405.437 189.397 405.576 189.888C405.725 190.379 405.8 190.917 405.8 191.504V192.208H399.656C399.656 192.624 399.709 193.013 399.816 193.376C399.933 193.728 400.093 194.037 400.296 194.304C400.509 194.56 400.77 194.763 401.08 194.912C401.389 195.061 401.746 195.136 402.152 195.136C402.845 195.136 403.352 195.008 403.672 194.752C403.992 194.485 404.21 194.128 404.328 193.68H405.672ZM404.408 191.168C404.408 190.773 404.365 190.416 404.28 190.096C404.194 189.776 404.061 189.504 403.88 189.28C403.698 189.045 403.464 188.864 403.176 188.736C402.888 188.608 402.541 188.544 402.136 188.544C401.4 188.544 400.824 188.768 400.408 189.216C400.002 189.664 399.762 190.315 399.688 191.168H404.408ZM409.078 191.648L406.31 187.728H407.942L409.91 190.656L411.958 187.728H413.446L410.726 191.632L413.734 196H412.118L409.846 192.656L407.558 196H406.022L409.078 191.648ZM414.645 187.728H416.021V188.912C416.362 188.443 416.757 188.085 417.205 187.84C417.664 187.595 418.197 187.472 418.805 187.472C419.392 187.472 419.904 187.579 420.341 187.792C420.789 188.005 421.157 188.304 421.445 188.688C421.744 189.072 421.962 189.531 422.101 190.064C422.25 190.587 422.325 191.168 422.325 191.808C422.325 192.491 422.24 193.109 422.069 193.664C421.898 194.208 421.653 194.672 421.333 195.056C421.013 195.44 420.624 195.739 420.165 195.952C419.717 196.155 419.21 196.256 418.645 196.256C418.176 196.256 417.712 196.165 417.253 195.984C416.805 195.792 416.4 195.456 416.037 194.976V199.104H414.645V187.728ZM416.021 192.096C416.021 192.629 416.08 193.088 416.197 193.472C416.325 193.845 416.496 194.155 416.709 194.4C416.922 194.645 417.178 194.827 417.477 194.944C417.776 195.051 418.101 195.104 418.453 195.104C418.794 195.104 419.109 195.045 419.397 194.928C419.696 194.811 419.952 194.624 420.165 194.368C420.378 194.101 420.544 193.76 420.661 193.344C420.789 192.928 420.853 192.421 420.853 191.824C420.853 191.216 420.784 190.709 420.645 190.304C420.517 189.888 420.346 189.557 420.133 189.312C419.92 189.067 419.674 188.891 419.397 188.784C419.13 188.677 418.853 188.624 418.565 188.624C418.202 188.624 417.866 188.688 417.557 188.816C417.248 188.933 416.976 189.115 416.741 189.36C416.517 189.595 416.341 189.899 416.213 190.272C416.085 190.635 416.021 191.056 416.021 191.536V192.096ZM423.664 185.408C423.664 185.141 423.755 184.923 423.936 184.752C424.117 184.571 424.336 184.48 424.592 184.48C424.869 184.48 425.093 184.565 425.264 184.736C425.435 184.907 425.52 185.131 425.52 185.408C425.52 185.675 425.435 185.899 425.264 186.08C425.093 186.251 424.869 186.336 424.592 186.336C424.325 186.336 424.101 186.251 423.92 186.08C423.749 185.899 423.664 185.675 423.664 185.408ZM423.904 196V187.728H425.296V196H423.904ZM427.146 187.728H428.522V189.008C428.831 188.549 429.194 188.197 429.61 187.952C430.026 187.707 430.468 187.584 430.938 187.584C431.226 187.584 431.471 187.605 431.674 187.648L431.498 188.944C431.391 188.923 431.284 188.907 431.178 188.896C431.071 188.875 430.954 188.864 430.826 188.864C430.57 188.864 430.308 188.912 430.042 189.008C429.775 189.093 429.524 189.243 429.29 189.456C429.055 189.659 428.868 189.893 428.73 190.16C428.602 190.427 428.538 190.736 428.538 191.088V196H427.146V187.728ZM440.275 187.728L435.507 199.104H434.067L435.555 195.792L432.131 187.728H433.747L436.243 194.16L438.739 187.728H440.275ZM450.405 194.816C450.064 195.275 449.669 195.632 449.221 195.888C448.773 196.133 448.245 196.256 447.637 196.256C447.029 196.256 446.501 196.144 446.053 195.92C445.616 195.696 445.253 195.392 444.965 195.008C444.677 194.613 444.464 194.149 444.325 193.616C444.186 193.083 444.117 192.512 444.117 191.904C444.117 191.221 444.202 190.608 444.373 190.064C444.544 189.509 444.784 189.04 445.093 188.656C445.413 188.272 445.797 187.979 446.245 187.776C446.704 187.573 447.221 187.472 447.797 187.472C448.234 187.472 448.677 187.563 449.125 187.744C449.573 187.915 449.989 188.245 450.373 188.736V184.576H451.765V196H450.405V194.816ZM450.421 191.616C450.421 190.955 450.346 190.443 450.197 190.08C450.058 189.707 449.824 189.392 449.493 189.136C449.258 188.944 449.018 188.811 448.773 188.736C448.538 188.661 448.277 188.624 447.989 188.624C447.648 188.624 447.328 188.683 447.029 188.8C446.741 188.917 446.485 189.109 446.261 189.376C446.048 189.632 445.877 189.968 445.749 190.384C445.632 190.789 445.573 191.285 445.573 191.872C445.573 192.48 445.637 192.992 445.765 193.408C445.904 193.824 446.08 194.155 446.293 194.4C446.517 194.645 446.762 194.821 447.029 194.928C447.306 195.035 447.589 195.088 447.877 195.088C448.186 195.088 448.464 195.051 448.709 194.976C448.954 194.901 449.2 194.773 449.445 194.592C449.765 194.336 450.005 194.016 450.165 193.632C450.336 193.248 450.421 192.763 450.421 192.176V191.616ZM460.976 187.728V196H459.616V194.816C459.275 195.275 458.88 195.632 458.432 195.888C457.984 196.133 457.456 196.256 456.848 196.256C456.037 196.256 455.371 196.064 454.848 195.68C454.336 195.296 453.952 194.773 453.696 194.112C453.451 193.451 453.328 192.715 453.328 191.904C453.328 190.528 453.653 189.445 454.304 188.656C454.965 187.867 455.867 187.472 457.008 187.472C457.445 187.472 457.893 187.568 458.352 187.76C458.811 187.941 459.232 188.277 459.616 188.768V187.728H460.976ZM459.632 191.616C459.632 190.955 459.557 190.443 459.408 190.08C459.269 189.707 459.035 189.392 458.704 189.136C458.469 188.944 458.229 188.811 457.984 188.736C457.749 188.661 457.488 188.624 457.2 188.624C456.752 188.624 456.341 188.731 455.968 188.944C455.605 189.157 455.317 189.504 455.104 189.984C454.891 190.453 454.784 191.083 454.784 191.872C454.784 192.683 454.896 193.323 455.12 193.792C455.344 194.261 455.632 194.597 455.984 194.8C456.336 194.992 456.704 195.088 457.088 195.088C457.397 195.088 457.675 195.056 457.92 194.992C458.165 194.917 458.411 194.784 458.656 194.592C458.987 194.347 459.232 194.032 459.392 193.648C459.552 193.253 459.632 192.763 459.632 192.176V191.616ZM464.683 193.68C464.683 194.085 464.774 194.411 464.955 194.656C465.137 194.901 465.414 195.024 465.787 195.024C466.022 195.024 466.225 195.008 466.395 194.976C466.577 194.933 466.742 194.885 466.891 194.832L467.131 195.92C466.918 195.995 466.683 196.053 466.427 196.096C466.182 196.149 465.889 196.176 465.547 196.176C464.929 196.176 464.454 196.053 464.123 195.808C463.803 195.563 463.585 195.227 463.467 194.8C463.35 194.363 463.291 193.867 463.291 193.312V188.832H462.011V187.76H462.731C463.009 187.76 463.179 187.717 463.243 187.632C463.318 187.547 463.355 187.371 463.355 187.104V185.472H464.683V187.728H466.875V188.832H464.683V193.68ZM474.956 193.68C474.817 194.48 474.46 195.109 473.884 195.568C473.319 196.027 472.503 196.256 471.436 196.256C470.177 196.256 469.212 195.877 468.54 195.12C467.868 194.352 467.532 193.285 467.532 191.92C467.532 191.205 467.628 190.571 467.82 190.016C468.012 189.461 468.279 188.997 468.62 188.624C468.972 188.251 469.388 187.968 469.868 187.776C470.348 187.573 470.871 187.472 471.436 187.472C472.076 187.472 472.625 187.573 473.084 187.776C473.543 187.979 473.916 188.261 474.204 188.624C474.503 188.976 474.721 189.397 474.86 189.888C475.009 190.379 475.084 190.917 475.084 191.504V192.208H468.94C468.94 192.624 468.993 193.013 469.1 193.376C469.217 193.728 469.377 194.037 469.58 194.304C469.793 194.56 470.055 194.763 470.364 194.912C470.673 195.061 471.031 195.136 471.436 195.136C472.129 195.136 472.636 195.008 472.956 194.752C473.276 194.485 473.495 194.128 473.612 193.68H474.956ZM473.692 191.168C473.692 190.773 473.649 190.416 473.564 190.096C473.479 189.776 473.345 189.504 473.164 189.28C472.983 189.045 472.748 188.864 472.46 188.736C472.172 188.608 471.825 188.544 471.42 188.544C470.684 188.544 470.108 188.768 469.692 189.216C469.287 189.664 469.047 190.315 468.972 191.168H473.692ZM477.505 193.584C477.601 194.16 477.841 194.565 478.225 194.8C478.62 195.024 479.153 195.136 479.825 195.136C480.529 195.136 481.025 195.019 481.313 194.784C481.612 194.539 481.761 194.219 481.761 193.824C481.761 193.664 481.74 193.515 481.697 193.376C481.665 193.227 481.596 193.099 481.489 192.992C481.382 192.875 481.233 192.773 481.041 192.688C480.849 192.603 480.598 192.533 480.289 192.48L479.233 192.32C478.764 192.245 478.353 192.149 478.001 192.032C477.649 191.915 477.35 191.765 477.105 191.584C476.86 191.392 476.673 191.163 476.545 190.896C476.428 190.619 476.369 190.288 476.369 189.904C476.369 189.52 476.449 189.179 476.609 188.88C476.78 188.581 477.009 188.331 477.297 188.128C477.596 187.915 477.942 187.755 478.337 187.648C478.742 187.531 479.18 187.472 479.649 187.472C480.246 187.472 480.742 187.531 481.137 187.648C481.542 187.765 481.873 187.925 482.129 188.128C482.385 188.331 482.582 188.571 482.721 188.848C482.86 189.125 482.966 189.419 483.041 189.728L481.777 189.936C481.702 189.712 481.617 189.515 481.521 189.344C481.425 189.173 481.297 189.035 481.137 188.928C480.977 188.811 480.78 188.725 480.545 188.672C480.321 188.608 480.038 188.576 479.697 188.576C479.313 188.576 478.993 188.613 478.737 188.688C478.481 188.752 478.273 188.843 478.113 188.96C477.964 189.077 477.857 189.211 477.793 189.36C477.729 189.499 477.697 189.648 477.697 189.808C477.697 189.979 477.718 190.133 477.761 190.272C477.804 190.4 477.884 190.517 478.001 190.624C478.118 190.72 478.278 190.805 478.481 190.88C478.684 190.955 478.945 191.019 479.265 191.072L480.465 191.264C481.436 191.424 482.129 191.701 482.545 192.096C482.972 192.491 483.185 193.067 483.185 193.824C483.185 194.176 483.116 194.501 482.977 194.8C482.838 195.088 482.63 195.344 482.353 195.568C482.076 195.781 481.729 195.947 481.313 196.064C480.897 196.192 480.412 196.256 479.857 196.256C479.356 196.256 478.886 196.208 478.449 196.112C478.022 196.016 477.644 195.867 477.313 195.664C476.982 195.451 476.716 195.173 476.513 194.832C476.31 194.491 476.193 194.075 476.161 193.584H477.505ZM489.763 193.68C489.763 194.085 489.853 194.411 490.035 194.656C490.216 194.901 490.493 195.024 490.867 195.024C491.101 195.024 491.304 195.008 491.475 194.976C491.656 194.933 491.821 194.885 491.971 194.832L492.211 195.92C491.997 195.995 491.763 196.053 491.507 196.096C491.261 196.149 490.968 196.176 490.627 196.176C490.008 196.176 489.533 196.053 489.203 195.808C488.883 195.563 488.664 195.227 488.547 194.8C488.429 194.363 488.371 193.867 488.371 193.312V188.832H487.091V187.76H487.811C488.088 187.76 488.259 187.717 488.323 187.632C488.397 187.547 488.435 187.371 488.435 187.104V185.472H489.763V187.728H491.955V188.832H489.763V193.68ZM493.118 184.576H494.51V188.96C494.915 188.437 495.358 188.059 495.838 187.824C496.328 187.589 496.846 187.472 497.39 187.472C498.328 187.472 499.022 187.728 499.47 188.24C499.928 188.752 500.158 189.504 500.158 190.496V196H498.75V190.768C498.75 190 498.611 189.461 498.334 189.152C498.067 188.832 497.646 188.672 497.07 188.672C496.76 188.672 496.451 188.725 496.142 188.832C495.843 188.939 495.571 189.109 495.326 189.344C495.059 189.579 494.856 189.829 494.718 190.096C494.579 190.352 494.51 190.688 494.51 191.104V196H493.118V184.576ZM509.075 193.68C508.936 194.48 508.579 195.109 508.003 195.568C507.437 196.027 506.621 196.256 505.555 196.256C504.296 196.256 503.331 195.877 502.659 195.12C501.987 194.352 501.651 193.285 501.651 191.92C501.651 191.205 501.747 190.571 501.939 190.016C502.131 189.461 502.397 188.997 502.739 188.624C503.091 188.251 503.507 187.968 503.987 187.776C504.467 187.573 504.989 187.472 505.555 187.472C506.195 187.472 506.744 187.573 507.203 187.776C507.661 187.979 508.035 188.261 508.323 188.624C508.621 188.976 508.84 189.397 508.979 189.888C509.128 190.379 509.203 190.917 509.203 191.504V192.208H503.059C503.059 192.624 503.112 193.013 503.219 193.376C503.336 193.728 503.496 194.037 503.699 194.304C503.912 194.56 504.173 194.763 504.483 194.912C504.792 195.061 505.149 195.136 505.555 195.136C506.248 195.136 506.755 195.008 507.075 194.752C507.395 194.485 507.613 194.128 507.731 193.68H509.075ZM507.811 191.168C507.811 190.773 507.768 190.416 507.683 190.096C507.597 189.776 507.464 189.504 507.283 189.28C507.101 189.045 506.867 188.864 506.579 188.736C506.291 188.608 505.944 188.544 505.539 188.544C504.803 188.544 504.227 188.768 503.811 189.216C503.405 189.664 503.165 190.315 503.091 191.168H507.811ZM510.728 187.728H512.104V188.992C512.509 188.448 512.957 188.059 513.448 187.824C513.938 187.589 514.456 187.472 515 187.472C515.938 187.472 516.632 187.728 517.08 188.24C517.538 188.752 517.768 189.504 517.768 190.496V196H516.376V190.768C516.376 190 516.237 189.461 515.96 189.152C515.682 188.832 515.256 188.672 514.68 188.672C514.37 188.672 514.061 188.725 513.752 188.832C513.453 188.939 513.181 189.109 512.936 189.344C512.669 189.579 512.466 189.829 512.328 190.096C512.189 190.352 512.12 190.688 512.12 191.104V196H510.728V187.728ZM519.261 195.296C519.261 195.019 519.351 194.789 519.533 194.608C519.714 194.427 519.949 194.336 520.237 194.336C520.525 194.336 520.759 194.427 520.941 194.608C521.122 194.789 521.213 195.019 521.213 195.296C521.213 195.573 521.122 195.803 520.941 195.984C520.759 196.165 520.525 196.256 520.237 196.256C519.949 196.256 519.714 196.165 519.533 195.984C519.351 195.803 519.261 195.573 519.261 195.296Z" fill="#353535"/>
<path d="M24.8723 7.68018C23.9415 8.60952 23.6553 9.10854 22.9872 10.5137L16.8085 24.0003L12.4362 14.5483L8.11595 24.0003L1.88617 10.5137C1.24149 9.10854 0.957446 8.65498 0 7.68018H7.90106C7.60952 7.90291 7.37598 8.18648 7.2186 8.50884C7.06122 8.83119 6.98423 9.18367 6.99361 9.53887C6.99361 10.0833 7.08936 10.4682 7.4 11.1713L9.76276 16.5251L11.5053 12.536L10.5319 10.3773C9.95957 9.13077 9.55319 8.35698 8.98085 7.68018H16.8819C16.1181 8.15596 15.7362 8.76812 15.7362 9.53887C15.7362 10.0833 15.8308 10.4682 16.1415 11.1713L18.5521 16.5251L20.9394 11.1763C21.25 10.4692 21.3649 10.0884 21.3649 9.56615C21.3649 8.88631 20.8638 8.07111 20.2904 7.68523L24.8723 7.68018Z" fill="#161616"/>
<path d="M33.0851 19.693C32.3212 22.8437 30.484 23.8862 27.8106 23.8862C24.7553 23.8862 21.8904 21.779 21.8904 17.8121C21.8904 14.0038 24.4202 11.3066 27.7414 11.3066C29.9138 11.3066 32.9691 12.3724 32.9691 16.8625H25.7553C26.2563 19.2647 27.9031 20.5112 30.1946 20.5112C31.3648 20.5092 32.1765 20.3052 33.0851 19.693ZM25.6117 15.2958V15.5867H28.7627C28.7627 13.3199 28.2372 12.6178 27.2351 12.6178C26.2085 12.6219 25.6117 13.5957 25.6117 15.2958Z" fill="#161616"/>
<path d="M47.5532 11.7821C45.5713 9.9921 43.6171 9.06275 42.1107 9.06275V19.0633C42.1107 21.0837 42.6596 22.3049 44.116 23.5515H35.0884C36.5447 22.3049 37.0937 21.0806 37.0937 19.0633V9.06275C35.5894 9.06275 33.5373 9.9921 31.6511 11.7821L32.6064 7C33.2501 7.47579 34.4437 7.67984 35.7809 7.67984H43.4192C44.7564 7.67984 45.949 7.47781 46.5937 7L47.5532 11.7821Z" fill="#161616"/>
<path d="M53.0383 23.5468H45.4479C46.3787 22.5043 46.784 21.8245 46.784 20.1699V16.4959C46.784 15.2039 46.5936 14.5917 45.6862 13.7978L45.1606 13.3452L50.8904 11.3047V14.1402C51.4394 12.5078 52.2979 11.3067 53.7064 11.3067C54.8521 11.3067 55.5926 12.0775 55.5926 13.2109C55.5926 14.4119 54.8043 15.2504 53.7064 15.2504C53.4681 14.7291 52.8947 14.4806 52.3702 14.4806C51.9447 14.4806 51.534 14.5938 51.3191 14.7978V20.0315C51.3191 21.779 51.6298 22.2538 53.0383 23.5468Z" fill="#161616"/>
<path d="M68.7234 21.4618C68.4372 22.8891 67.1957 23.8862 65.501 23.8862C64.0691 23.8862 62.9712 23.071 62.6372 22.1416C61.9148 23.3649 60.5808 23.8862 59.1489 23.8862C57.167 23.8862 55.8308 22.6396 55.8308 20.9395C55.8308 18.9455 57.3351 17.5626 60.7957 16.7696L62.3914 16.4069V14.3664C62.3914 13.0977 61.9383 12.5764 61.1266 12.5764C60.3627 12.5764 59.8617 13.0522 59.8617 13.7098C59.8617 14.2765 60.1478 14.6392 60.6489 15.0917C60.6489 15.817 59.4553 16.5655 58.2148 16.5655C57.9405 16.5712 57.6678 16.524 57.4132 16.427C57.1586 16.3299 56.9272 16.1848 56.7332 16.0006C56.5392 15.8163 56.3865 15.5967 56.2842 15.3549C56.182 15.1131 56.1323 14.8542 56.1383 14.5937C56.1383 12.6673 58.3819 11.3066 61.6702 11.3066C65.1074 11.3066 66.9223 12.6896 66.9223 15.7716V20.6456C66.9223 21.2577 67.3042 21.6648 67.901 21.6648C68.267 21.6648 68.5297 21.5971 68.7234 21.4618ZM62.3978 21.1214V17.4717L62.0883 17.5626C61.0617 17.8575 60.3691 18.4919 60.3691 19.7617C60.3691 20.8496 60.8223 21.5062 61.5627 21.5062C61.9414 21.5062 62.2521 21.3931 62.3946 21.1214H62.3978Z" fill="#161616"/>
<path d="M75.1892 23.5468H68.7679C69.436 22.9347 69.8658 22.0316 69.8658 20.1699V16.4959C69.8658 15.2484 69.6987 14.614 68.9083 13.9119L68.3594 13.4351L74.2785 11.3047V13.0725C74.9711 11.9845 76.4275 11.3047 77.8828 11.3047C80.1743 11.3047 81.4402 12.4835 81.4402 14.5918V20.9406C81.4402 22.2326 81.7977 23.0266 82.3711 23.5478H76.12C76.7402 22.9811 76.9072 22.2104 76.9072 21.5982V15.115C76.9072 14.1624 76.5732 13.6866 75.6423 13.6866C75.4141 13.6808 75.187 13.7179 74.9739 13.7957C74.7609 13.8736 74.5661 13.9906 74.4009 14.1402V21.5972C74.4009 22.2094 74.5679 22.9609 75.1892 23.5468Z" fill="#161616"/>
<path d="M83.5435 22.8891V19.0132C85.2616 21.1436 87.0542 22.3224 88.7233 22.3224C89.534 22.3224 89.9159 21.9184 89.9159 21.3476C89.9159 20.8042 89.6063 20.487 89.0574 20.2829L86.2914 19.3081C84.1637 18.5596 83.2063 17.3131 83.2063 15.4544C83.2063 13.0522 85.2829 11.3066 88.2435 11.3066C89.8393 11.3066 91.6095 11.738 92.4925 12.3491V15.6584C91.3946 13.823 89.6042 12.8027 87.8616 12.8027C86.9786 12.8027 86.5244 13.0744 86.5244 13.5957C86.5244 14.1169 86.8584 14.321 87.5988 14.6159L90.8712 15.8897C92.518 16.5241 93.2584 17.8616 93.2584 19.4708C93.2584 22.1224 91.2297 23.8902 88.1733 23.8902C86.5713 23.8843 84.9903 23.5424 83.5435 22.8891Z" fill="#161616"/>
<path d="M93.735 12.7801L95.118 10.7598C96.886 8.22431 98.2977 7 100.682 7C102.543 7 103.737 7.77075 103.737 8.92638C103.737 9.92442 102.878 10.6497 101.064 10.6497C101.064 9.24357 100.228 8.72232 99.3924 8.72232C98.5573 8.72232 97.9126 9.28902 97.9126 10.2184C97.9126 10.8528 98.2701 11.4881 99.3679 11.6467H102.021L101.064 12.7801H99.4403V19.5119C99.4403 20.7806 99.6531 21.914 101.036 23.0706L101.609 23.5464H93.3765C94.3339 22.6373 94.9041 21.5261 94.9041 19.8967V12.7801H93.735Z" fill="#161616"/>
<path d="M112.447 19.693C111.683 22.8437 109.845 23.8862 107.171 23.8862C104.116 23.8862 101.252 21.779 101.252 17.8121C101.252 14.0038 103.782 11.3066 107.103 11.3066C109.275 11.3066 112.331 12.3724 112.331 16.8625H105.121C105.622 19.2647 107.269 20.5112 109.56 20.5112C110.731 20.5092 111.542 20.3052 112.447 19.693ZM104.977 15.2958V15.5867H108.129C108.129 13.3199 107.603 12.6178 106.601 12.6178C105.574 12.6219 104.977 13.5957 104.977 15.2958Z" fill="#161616"/>
<path d="M120.446 23.5468H112.854C113.785 22.5043 114.192 21.8244 114.192 20.1698V16.4958C114.192 15.2038 114 14.5917 113.094 13.7977L112.568 13.3451L118.298 11.3066V14.1401C118.847 12.5077 119.706 11.3066 121.115 11.3066C122.261 11.3066 123 12.0774 123 13.2108C123 14.4119 122.213 15.2503 121.115 15.2503C120.876 14.7291 120.303 14.4806 119.778 14.4806C119.352 14.4806 118.943 14.5937 118.728 14.7978V20.0314C118.723 21.779 119.043 22.2538 120.446 23.5468Z" fill="#161616"/>
<path d="M127.704 6.864H129.912V17.208C129.912 18.984 130.24 20.312 130.896 21.192C131.568 22.072 132.672 22.512 134.208 22.512C135.76 22.512 136.856 22.072 137.496 21.192C138.136 20.296 138.456 18.968 138.456 17.208V6.864H140.664V17.208C140.664 18.488 140.512 19.584 140.208 20.496C139.92 21.392 139.496 22.136 138.936 22.728C138.392 23.32 137.712 23.752 136.896 24.024C136.096 24.296 135.192 24.432 134.184 24.432C132.12 24.432 130.52 23.856 129.384 22.704C128.264 21.552 127.704 19.688 127.704 17.112V6.864ZM144.735 6.864H146.823V24H144.735V6.864ZM153.606 20.52C153.606 21.128 153.742 21.616 154.014 21.984C154.286 22.352 154.702 22.536 155.262 22.536C155.614 22.536 155.918 22.512 156.174 22.464C156.446 22.4 156.694 22.328 156.918 22.248L157.278 23.88C156.958 23.992 156.606 24.08 156.222 24.144C155.854 24.224 155.414 24.264 154.902 24.264C153.974 24.264 153.262 24.08 152.766 23.712C152.286 23.344 151.958 22.84 151.782 22.2C151.606 21.544 151.518 20.8 151.518 19.968V13.248H149.598V11.64H150.678C151.094 11.64 151.35 11.576 151.446 11.448C151.558 11.32 151.614 11.056 151.614 10.656V8.208H153.606V11.592H156.894V13.248H153.606V20.52ZM159.526 8.112C159.526 7.712 159.662 7.384 159.934 7.128C160.206 6.856 160.534 6.72 160.918 6.72C161.334 6.72 161.67 6.848 161.926 7.104C162.182 7.36 162.31 7.696 162.31 8.112C162.31 8.512 162.182 8.848 161.926 9.12C161.67 9.376 161.334 9.504 160.918 9.504C160.518 9.504 160.182 9.376 159.91 9.12C159.654 8.848 159.526 8.512 159.526 8.112ZM159.886 24V11.592H161.974V24H159.886ZM165.949 11.592H168.013V13.488C168.573 12.72 169.189 12.152 169.861 11.784C170.533 11.4 171.221 11.208 171.925 11.208C172.853 11.208 173.597 11.408 174.157 11.808C174.733 12.208 175.157 12.784 175.429 13.536C175.989 12.768 176.629 12.192 177.349 11.808C178.069 11.408 178.837 11.208 179.653 11.208C180.869 11.208 181.805 11.544 182.461 12.216C183.133 12.872 183.469 13.936 183.469 15.408V24H181.381V15.888C181.381 15.328 181.333 14.864 181.237 14.496C181.141 14.112 180.997 13.816 180.805 13.608C180.629 13.384 180.405 13.232 180.133 13.152C179.861 13.056 179.549 13.008 179.197 13.008C178.829 13.008 178.445 13.072 178.045 13.2C177.645 13.328 177.253 13.552 176.869 13.872C176.549 14.144 176.285 14.472 176.077 14.856C175.869 15.24 175.765 15.68 175.765 16.176V24H173.677V15.912C173.677 14.824 173.485 14.072 173.101 13.656C172.733 13.224 172.197 13.008 171.493 13.008C170.677 13.008 169.909 13.344 169.189 14.016C168.917 14.272 168.653 14.6 168.397 15C168.157 15.4 168.037 15.936 168.037 16.608V24H165.949V11.592ZM198.405 11.592V24H196.365V22.224C195.853 22.912 195.261 23.448 194.589 23.832C193.917 24.2 193.125 24.384 192.213 24.384C190.997 24.384 189.997 24.096 189.213 23.52C188.445 22.944 187.869 22.16 187.485 21.168C187.117 20.176 186.933 19.072 186.933 17.856C186.933 15.792 187.421 14.168 188.397 12.984C189.389 11.8 190.741 11.208 192.453 11.208C193.109 11.208 193.781 11.352 194.469 11.64C195.157 11.912 195.789 12.416 196.365 13.152V11.592H198.405ZM196.389 17.424C196.389 16.432 196.277 15.664 196.053 15.12C195.845 14.56 195.493 14.088 194.997 13.704C194.645 13.416 194.285 13.216 193.917 13.104C193.565 12.992 193.173 12.936 192.741 12.936C192.069 12.936 191.453 13.096 190.893 13.416C190.349 13.736 189.917 14.256 189.597 14.976C189.277 15.68 189.117 16.624 189.117 17.808C189.117 19.024 189.285 19.984 189.621 20.688C189.957 21.392 190.389 21.896 190.917 22.2C191.445 22.488 191.997 22.632 192.573 22.632C193.037 22.632 193.453 22.584 193.821 22.488C194.189 22.376 194.557 22.176 194.925 21.888C195.421 21.52 195.789 21.048 196.029 20.472C196.269 19.88 196.389 19.144 196.389 18.264V17.424ZM205.166 20.52C205.166 21.128 205.302 21.616 205.574 21.984C205.846 22.352 206.262 22.536 206.822 22.536C207.174 22.536 207.478 22.512 207.734 22.464C208.006 22.4 208.254 22.328 208.478 22.248L208.838 23.88C208.518 23.992 208.166 24.08 207.782 24.144C207.414 24.224 206.974 24.264 206.462 24.264C205.534 24.264 204.822 24.08 204.326 23.712C203.846 23.344 203.518 22.84 203.342 22.2C203.166 21.544 203.078 20.8 203.078 19.968V13.248H201.158V11.64H202.238C202.654 11.64 202.91 11.576 203.006 11.448C203.118 11.32 203.174 11.056 203.174 10.656V8.208H205.166V11.592H208.454V13.248H205.166V20.52ZM221.774 20.52C221.566 21.72 221.03 22.664 220.166 23.352C219.318 24.04 218.094 24.384 216.494 24.384C214.606 24.384 213.158 23.816 212.15 22.68C211.142 21.528 210.638 19.928 210.638 17.88C210.638 16.808 210.782 15.856 211.07 15.024C211.358 14.192 211.758 13.496 212.27 12.936C212.798 12.376 213.422 11.952 214.142 11.664C214.862 11.36 215.646 11.208 216.494 11.208C217.454 11.208 218.278 11.36 218.966 11.664C219.654 11.968 220.214 12.392 220.646 12.936C221.094 13.464 221.422 14.096 221.63 14.832C221.854 15.568 221.966 16.376 221.966 17.256V18.312H212.75C212.75 18.936 212.83 19.52 212.99 20.064C213.166 20.592 213.406 21.056 213.71 21.456C214.03 21.84 214.422 22.144 214.886 22.368C215.35 22.592 215.886 22.704 216.494 22.704C217.534 22.704 218.294 22.512 218.774 22.128C219.254 21.728 219.582 21.192 219.758 20.52H221.774ZM219.878 16.752C219.878 16.16 219.814 15.624 219.686 15.144C219.558 14.664 219.358 14.256 219.086 13.92C218.814 13.568 218.462 13.296 218.03 13.104C217.598 12.912 217.078 12.816 216.47 12.816C215.366 12.816 214.502 13.152 213.878 13.824C213.27 14.496 212.91 15.472 212.798 16.752H219.878Z" fill="#3767EA"/>
</svg>
