<svg width="236" height="35" viewBox="0 0 236 35" fill="none" xmlns="http://www.w3.org/2000/svg">
<g id="Frame" clip-path="url(#clip0_2003_11338)">
<path id="Path 13" d="M48.1839 1.80566C46.408 3.67068 45.8648 4.66806 44.5917 7.4899L32.8016 34.5569L24.4739 15.5905L16.2435 34.5569L4.36415 7.4899C3.13973 4.67616 2.59644 3.75987 0.771973 1.80566H15.8299C14.6947 2.7625 14.1028 3.98692 14.1028 5.53569C14.1028 6.62226 14.2893 7.4007 14.8731 8.81163L19.3735 19.5476L22.698 11.5443L20.833 7.22231C19.7383 4.72482 18.968 3.17604 17.8733 1.81377H32.9313C31.4717 2.77061 30.75 3.99503 30.75 5.5438C30.75 6.63037 30.9365 7.40881 31.5204 8.81974L36.1261 19.5476L40.6752 8.81163C41.2671 7.4007 41.4941 6.63037 41.4941 5.58434C41.4941 4.22207 40.5373 2.5841 39.4426 1.81377L48.1839 1.80566Z" fill="black"/>
<path id="Shape 5" d="M63.8335 25.9131C62.3739 32.2379 58.8709 34.3299 53.7786 34.3299C47.9565 34.3299 42.4912 30.0972 42.4912 22.1425C42.4912 14.504 47.3159 9.0874 53.6407 9.0874C57.7843 9.0874 63.6064 11.2281 63.6064 20.2288H49.8621C50.8189 25.0454 53.957 27.551 58.3276 27.551C60.5575 27.551 62.1063 27.1456 63.8335 25.9131ZM49.5945 17.0907V17.6827H55.6031C55.6031 13.1337 54.5976 11.7227 52.692 11.7227C50.7297 11.7227 49.5945 13.677 49.5945 17.0907Z" fill="black"/>
<path id="Path 12" d="M91.4035 10.036C87.6329 6.44384 83.9029 4.57882 81.0324 4.57882V24.6399C81.0324 28.6861 82.0784 31.1431 84.8516 33.6487H67.6529C70.4261 31.1512 71.4722 28.6943 71.4722 24.6399V4.57882C68.6017 4.57882 64.6933 6.44384 61.1011 10.036L62.9255 0.443359C64.1581 1.40019 66.4285 1.80563 68.9747 1.80563H83.538C86.0842 1.80563 88.3627 1.39208 89.5871 0.443359L91.4035 10.036Z" fill="black"/>
<path id="Path 11" d="M101.872 33.6488H87.4056C89.1814 31.5568 89.9517 30.1945 89.9517 26.8699V19.499C89.9517 16.9042 89.5869 15.6798 87.8597 14.0905L86.8623 13.1823L97.7848 9.0874V14.7716C98.8308 11.4957 100.469 9.0874 103.153 9.0874C105.334 9.0874 106.745 10.6362 106.745 12.9066C106.745 15.3149 105.245 17.0015 103.153 17.0015C102.699 15.9555 101.604 15.4528 100.607 15.4528C99.7877 15.4528 99.0173 15.6798 98.6038 16.0853V26.5942C98.5957 30.0972 99.1876 31.054 101.872 33.6488Z" fill="black"/>
<path id="Shape 4" d="M131.761 29.4645C131.218 32.3269 128.85 34.3297 125.615 34.3297C122.882 34.3297 120.79 32.6918 120.157 30.8268C118.795 33.2837 116.241 34.3297 113.516 34.3297C109.738 34.3297 107.191 31.8323 107.191 28.4185C107.191 24.4127 110.062 21.6396 116.654 20.0502L119.703 19.3205V15.2255C119.703 12.6794 118.836 11.6334 117.295 11.6334C115.843 11.6334 114.887 12.5902 114.887 13.9038C114.887 15.039 115.43 15.7688 116.387 16.677C116.387 18.1285 114.108 19.6286 111.749 19.6286C109.429 19.6286 107.791 17.8528 107.791 15.6715C107.791 11.8036 112.065 9.0791 118.349 9.0791C124.901 9.0791 128.355 11.8523 128.355 18.0393V27.8184C128.355 29.0428 129.085 29.8618 130.22 29.8618C130.901 29.8699 131.396 29.7321 131.761 29.4645ZM119.703 28.7834V21.4612L119.111 21.6396C117.157 22.2315 115.835 23.5046 115.835 26.0507C115.835 28.232 116.703 29.5537 118.114 29.5537C118.844 29.5537 119.436 29.3266 119.703 28.7834Z" fill="black"/>
<path id="Path 10" d="M144.094 33.6488H131.858C133.131 32.4244 133.95 30.5999 133.95 26.8699V19.499C133.95 17.0015 133.634 15.7285 132.134 14.3176L131.088 13.3607L142.375 9.0874V12.6309C143.697 10.4497 146.47 9.0874 149.243 9.0874C153.614 9.0874 156.022 11.4552 156.022 15.6798V28.4187C156.022 31.0135 156.703 32.6028 157.798 33.6488H145.878C147.062 32.5136 147.378 30.9648 147.378 29.7404V16.7259C147.378 14.8203 146.746 13.8635 144.97 13.8635C143.973 13.8635 143.146 14.2284 142.602 14.7716V29.7323C142.586 30.9648 142.91 32.4649 144.094 33.6488Z" fill="black"/>
<path id="Path 9" d="M160.02 32.3273V24.551C163.296 28.8243 166.709 31.1921 169.896 31.1921C171.445 31.1921 172.175 30.3731 172.175 29.2379C172.175 28.1432 171.583 27.5107 170.537 27.0971L165.258 25.1429C161.212 23.6428 159.387 21.1372 159.387 17.4153C159.387 12.5987 163.344 9.0957 168.988 9.0957C172.037 9.0957 175.402 9.95523 177.089 11.1878V17.8288C174.997 14.1475 171.583 12.0959 168.258 12.0959C166.572 12.0959 165.712 12.6392 165.712 13.6853C165.712 14.7313 166.353 15.1367 167.755 15.7287L173.991 18.2748C177.129 19.5479 178.54 22.2319 178.54 25.4592C178.54 30.7785 174.672 34.3302 168.85 34.3302C165.931 34.3302 162.931 33.6896 160.02 32.3273Z" fill="black"/>
<path id="Path 8" d="M179.44 12.0389L182.076 7.99261C185.449 2.90031 188.133 0.443359 192.682 0.443359C196.234 0.443359 198.504 1.99213 198.504 4.31123C198.504 6.3141 196.866 7.76556 193.404 7.76556C193.404 4.94372 191.814 3.89769 190.217 3.89769C188.628 3.89769 187.395 5.03291 187.395 6.89793C187.395 8.171 188.076 9.44407 190.168 9.76032H195.22L193.396 12.0308H190.298V25.5399C190.298 28.0861 190.712 30.3565 193.347 32.6838L194.442 33.6406H178.759C180.584 31.8242 181.67 29.5943 181.67 26.3184V12.0389H179.44Z" fill="black"/>
<path id="Shape 3" d="M215.111 25.9131C213.651 32.2379 210.148 34.3299 205.056 34.3299C199.234 34.3299 193.769 30.0972 193.769 22.1425C193.769 14.504 198.593 9.0874 204.918 9.0874C209.062 9.0874 214.884 11.2281 214.884 20.2288H201.147C202.104 25.0454 205.242 27.551 209.613 27.551C211.843 27.551 213.384 27.1456 215.111 25.9131ZM200.872 17.0907V17.6827H206.88C206.88 13.1337 205.875 11.7227 203.969 11.7227C202.015 11.7227 200.872 13.677 200.872 17.0907Z" fill="black"/>
<path id="Path 7" d="M230.355 33.6488H215.889C217.665 31.5568 218.435 30.1945 218.435 26.8699V19.499C218.435 16.9042 218.071 15.6798 216.343 14.0905L215.338 13.1823L226.26 9.0874V14.7716C227.306 11.4957 228.944 9.0874 231.628 9.0874C233.81 9.0874 235.221 10.6362 235.221 12.9066C235.221 15.3149 233.72 17.0015 231.628 17.0015C231.174 15.9555 230.08 15.4528 229.082 15.4528C228.263 15.4528 227.493 15.6798 227.079 16.0853V26.5942C227.079 30.0972 227.671 31.054 230.355 33.6488Z" fill="black"/>
</g>
<defs>
<clipPath id="clip0_2003_11338">
<rect width="234.457" height="34.1135" fill="white" transform="translate(0.771973 0.443359)"/>
</clipPath>
</defs>
</svg>
